<?xml version="1.0" encoding="UTF-8" standalone="no"?>
<!-- Created with Inkscape (http://www.inkscape.org/) -->
<svg
   xmlns:svg="http://www.w3.org/2000/svg"
   xmlns="http://www.w3.org/2000/svg"
   version="1.0"
   width="54.189999"
   height="54.189999"
   id="svg2386">
  <defs
     id="defs2388">
    <clipPath
       id="clipPath2434">
      <path
         d="M 0,0 L 1190.551,0 L 1190.551,841.89 L 0,841.89 L 0,0 z"
         id="path2436" />
    </clipPath>
    <clipPath
       id="clipPath2518">
      <path
         d="M 749.667,64.035 L 780.788,64.035 L 780.788,92.984 L 749.667,92.984 L 749.667,64.035 z"
         id="path2520" />
    </clipPath>
    <clipPath
       id="clipPath2530">
      <path
         d="M 0,0 L 1190.551,0 L 1190.551,841.89 L 0,841.89 L 0,0 z"
         id="path2532" />
    </clipPath>
    <clipPath
       id="clipPath2550">
      <path
         d="M 0,0 L 1190.551,0 L 1190.551,841.89 L 0,841.89 L 0,0 z"
         id="path2552" />
    </clipPath>
    <clipPath
       id="clipPath2562">
      <path
         d="M 787.92,641.924 L 816.869,641.924 L 816.869,670.873 L 787.92,670.873 L 787.92,641.924 z"
         id="path2564" />
    </clipPath>
    <clipPath
       id="clipPath2584">
      <path
         d="M 836.221,400.564 L 867.341,400.564 L 867.341,429.513 L 836.221,429.513 L 836.221,400.564 z"
         id="path2586" />
    </clipPath>
    <clipPath
       id="clipPath2596">
      <path
         d="M 0,0 L 1190.551,0 L 1190.551,841.89 L 0,841.89 L 0,0 z"
         id="path2598" />
    </clipPath>
    <clipPath
       id="clipPath2628">
      <path
         d="M 0,0 L 1190.551,0 L 1190.551,841.89 L 0,841.89 L 0,0 z"
         id="path2630" />
    </clipPath>
    <clipPath
       id="clipPath2652">
      <path
         d="M 0,0 L 1190.551,0 L 1190.551,841.89 L 0,841.89 L 0,0 z"
         id="path2654" />
    </clipPath>
    <clipPath
       id="clipPath2668">
      <path
         d="M 0,0 L 1190.551,0 L 1190.551,841.89 L 0,841.89 L 0,0 z"
         id="path2670" />
    </clipPath>
    <clipPath
       id="clipPath2688">
      <path
         d="M 0,0 L 1190.551,0 L 1190.551,841.89 L 0,841.89 L 0,0 z"
         id="path2690" />
    </clipPath>
    <clipPath
       id="clipPath2740">
      <path
         d="M 0,0 L 1190.551,0 L 1190.551,841.89 L 0,841.89 L 0,0 z"
         id="path2742" />
    </clipPath>
    <clipPath
       id="clipPath2764">
      <path
         d="M 0,0 L 1190.551,0 L 1190.551,841.89 L 0,841.89 L 0,0 z"
         id="path2766" />
    </clipPath>
    <clipPath
       id="clipPath2784">
      <path
         d="M 0,0 L 1190.551,0 L 1190.551,841.89 L 0,841.89 L 0,0 z"
         id="path2786" />
    </clipPath>
    <clipPath
       id="clipPath2812">
      <path
         d="M 0,0 L 1190.551,0 L 1190.551,841.89 L 0,841.89 L 0,0 z"
         id="path2814" />
    </clipPath>
    <clipPath
       id="clipPath2848">
      <path
         d="M 0,0 L 1190.551,0 L 1190.551,841.89 L 0,841.89 L 0,0 z"
         id="path2850" />
    </clipPath>
    <clipPath
       id="clipPath2908">
      <path
         d="M 1017.231,716.947 L 1040.752,716.947 L 1040.752,736.85 L 1017.231,736.85 L 1017.231,716.947 z"
         id="path2910" />
    </clipPath>
    <clipPath
       id="clipPath2928">
      <path
         d="M 0,0 L 1190.551,0 L 1190.551,841.89 L 0,841.89 L 0,0 z"
         id="path2930" />
    </clipPath>
    <clipPath
       id="clipPath2948">
      <path
         d="M 0,0 L 1190.551,0 L 1190.551,841.89 L 0,841.89 L 0,0 z"
         id="path2950" />
    </clipPath>
    <clipPath
       id="clipPath2960">
      <path
         d="M 975.861,644.553 L 1004.81,644.553 L 1004.81,673.502 L 975.861,673.502 L 975.861,644.553 z"
         id="path2962" />
    </clipPath>
    <clipPath
       id="clipPath2982">
      <path
         d="M 982.852,401.552 L 1013.973,401.552 L 1013.973,430.501 L 982.852,430.501 L 982.852,401.552 z"
         id="path2984" />
    </clipPath>
    <clipPath
       id="clipPath2994">
      <path
         d="M 0,0 L 1190.551,0 L 1190.551,841.89 L 0,841.89 L 0,0 z"
         id="path2996" />
    </clipPath>
    <clipPath
       id="clipPath3026">
      <path
         d="M 0,0 L 1190.551,0 L 1190.551,841.89 L 0,841.89 L 0,0 z"
         id="path3028" />
    </clipPath>
    <clipPath
       id="clipPath3046">
      <path
         d="M 0,0 L 1190.551,0 L 1190.551,841.89 L 0,841.89 L 0,0 z"
         id="path3048" />
    </clipPath>
    <clipPath
       id="clipPath3070">
      <path
         d="M 0,0 L 1190.551,0 L 1190.551,841.89 L 0,841.89 L 0,0 z"
         id="path3072" />
    </clipPath>
    <clipPath
       id="clipPath3090">
      <path
         d="M 0,0 L 1190.551,0 L 1190.551,841.89 L 0,841.89 L 0,0 z"
         id="path3092" />
    </clipPath>
    <clipPath
       id="clipPath3110">
      <path
         d="M 0,0 L 1190.551,0 L 1190.551,841.89 L 0,841.89 L 0,0 z"
         id="path3112" />
    </clipPath>
    <clipPath
       id="clipPath3154">
      <path
         d="M 0,0 L 1190.551,0 L 1190.551,841.89 L 0,841.89 L 0,0 z"
         id="path3156" />
    </clipPath>
    <clipPath
       id="clipPath3178">
      <path
         d="M 0,0 L 1190.551,0 L 1190.551,841.89 L 0,841.89 L 0,0 z"
         id="path3180" />
    </clipPath>
    <clipPath
       id="clipPath3198">
      <path
         d="M 0,0 L 1190.551,0 L 1190.551,841.89 L 0,841.89 L 0,0 z"
         id="path3200" />
    </clipPath>
    <clipPath
       id="clipPath3226">
      <path
         d="M 0,0 L 1190.551,0 L 1190.551,841.89 L 0,841.89 L 0,0 z"
         id="path3228" />
    </clipPath>
    <clipPath
       id="clipPath3254">
      <path
         d="M 0,0 L 1190.551,0 L 1190.551,841.89 L 0,841.89 L 0,0 z"
         id="path3256" />
    </clipPath>
    <clipPath
       id="clipPath3270">
      <path
         d="M 0,0 L 1190.551,0 L 1190.551,841.89 L 0,841.89 L 0,0 z"
         id="path3272" />
    </clipPath>
    <clipPath
       id="clipPath3334">
      <path
         d="M 0,0 L 1190.551,0 L 1190.551,841.89 L 0,841.89 L 0,0 z"
         id="path3336" />
    </clipPath>
    <clipPath
       id="clipPath3406">
      <path
         d="M 328.82,578.802 C 328.82,568.028 337.554,559.293 348.328,559.293 L 348.328,559.293 C 359.103,559.293 367.836,568.028 367.836,578.802 L 367.836,578.802 C 367.836,589.576 359.103,598.31 348.328,598.31 L 348.328,598.31 C 337.554,598.31 328.82,589.576 328.82,578.802"
         id="path3408" />
    </clipPath>
    <clipPath
       id="clipPath3418">
      <path
         d="M 0,0 L 1190.551,0 L 1190.551,841.89 L 0,841.89 L 0,0 z"
         id="path3420" />
    </clipPath>
    <clipPath
       id="clipPath3434">
      <path
         d="M 390.514,526.214 C 390.514,515.44 399.248,506.705 410.022,506.705 L 410.022,506.705 C 420.797,506.705 429.53,515.44 429.53,526.214 L 429.53,526.214 C 429.53,536.988 420.797,545.722 410.022,545.722 L 410.022,545.722 C 399.248,545.722 390.514,536.988 390.514,526.214"
         id="path3436" />
    </clipPath>
    <clipPath
       id="clipPath3446">
      <path
         d="M 0,0 L 1190.551,0 L 1190.551,841.89 L 0,841.89 L 0,0 z"
         id="path3448" />
    </clipPath>
    <clipPath
       id="clipPath3462">
      <path
         d="M 388.739,577.67 C 388.739,566.896 397.473,558.162 408.247,558.162 L 408.247,558.162 C 419.021,558.162 427.756,566.896 427.756,577.67 L 427.756,577.67 C 427.756,588.444 419.021,597.179 408.247,597.179 L 408.247,597.179 C 397.473,597.179 388.739,588.444 388.739,577.67"
         id="path3464" />
    </clipPath>
    <clipPath
       id="clipPath3474">
      <path
         d="M 0,0 L 1190.551,0 L 1190.551,841.89 L 0,841.89 L 0,0 z"
         id="path3476" />
    </clipPath>
    <clipPath
       id="clipPath3514">
      <path
         d="M 0,0 L 1190.551,0 L 1190.551,841.89 L 0,841.89 L 0,0 z"
         id="path3516" />
    </clipPath>
    <clipPath
       id="clipPath3546">
      <path
         d="M 0,0 L 1190.551,0 L 1190.551,841.89 L 0,841.89 L 0,0 z"
         id="path3548" />
    </clipPath>
    <clipPath
       id="clipPath3574">
      <path
         d="M 330.07,139.046 C 330.07,127.517 339.416,118.171 350.944,118.171 L 350.944,118.171 C 362.473,118.171 371.819,127.517 371.819,139.046 L 371.819,139.046 C 371.819,150.574 362.473,159.919 350.944,159.919 L 350.944,159.919 C 339.416,159.919 330.07,150.574 330.07,139.046"
         id="path3576" />
    </clipPath>
    <clipPath
       id="clipPath3590">
      <path
         d="M 0,0 L 1190.551,0 L 1190.551,841.89 L 0,841.89 L 0,0 z"
         id="path3592" />
    </clipPath>
    <clipPath
       id="clipPath3702">
      <path
         d="M 0,0 L 1190.551,0 L 1190.551,841.89 L 0,841.89 L 0,0 z"
         id="path3704" />
    </clipPath>
    <clipPath
       id="clipPath3730">
      <path
         d="M 0,0 L 1190.551,0 L 1190.551,841.89 L 0,841.89 L 0,0 z"
         id="path3732" />
    </clipPath>
  </defs>
  <path
     d="M 52.878783,27.095 C 52.878783,41.33499 41.334991,52.878783 27.094999,52.878783 C 12.855008,52.878783 1.3112153,41.33499 1.3112153,27.095 C 1.3112153,12.855009 12.855008,1.3112169 27.094999,1.3112169 C 41.334991,1.3112169 52.878783,12.855009 52.878783,27.095 L 52.878783,27.095 z"
     id="path3773"
     style="fill:#86be29;fill-opacity:1;stroke:#ffffff;stroke-width:1.43200004;stroke-linecap:round;stroke-linejoin:round;stroke-miterlimit:4;stroke-dasharray:none;stroke-opacity:1" />
  <g
     transform="matrix(1.25,0,0,-1.25,-654.96888,804.69276)"
     id="g2514">
    <g
       clip-path="url(#clipPath2518)"
       id="g2516">
      <g
         transform="translate(849.5345,314.5472)"
         id="g2522">
        <path
           d="M 0,0 C -1.076,0.185 -2.644,-0.662 -2.753,-2.307 C -2.839,-3.612 -1.845,-4.859 -0.031,-4.844 L -0.031,-4.829 C 0.315,-6.677 1.786,-7.564 2.86,-7.643 C 3.846,-7.715 5.105,-7.474 5.967,-6.09 C 7.089,-6.997 8.486,-6.734 9.227,-6.028 C 9.966,-5.323 10.011,-4.352 9.949,-4.014 L 9.965,-4.014 C 10.611,-4.198 11.708,-3.952 11.81,-2.768 C 11.888,-1.867 11.083,-1.215 10.268,-1.265 C 10.268,-1.265 10.267,-1.263 10.268,-1.257 C 10.576,-0.057 9.995,0.59 9.596,0.892 C 9.028,1.321 8.342,1.312 7.72,1.138 C 7.658,2.153 6.611,3.48 5.136,3.537 C 3.536,3.598 2.111,2.676 1.891,0.892 C 1.599,1.138 1.077,1.229 0.677,1.046 C 0.308,0.877 0.031,0.492 0,0"
           id="path2524"
           style="fill:#000000;fill-opacity:1;fill-rule:nonzero;stroke:none" />
      </g>
    </g>
  </g>
  <g
     transform="matrix(1.25,0,0,-1.25,-654.96888,804.69276)"
     id="g2558">
    <g
       clip-path="url(#clipPath2562)"
       id="g2560">
      <g
         transform="translate(869.2766,711.2133)"
         id="g2566">
        <path
           d="M 0,0 C 0,4.252 3.447,7.698 7.699,7.698 C 11.95,7.698 15.397,4.252 15.397,0 C 15.397,-4.252 11.95,-7.699 7.699,-7.699 C 3.447,-7.699 0,-4.252 0,0"
           id="path2568"
           style="fill:#000000;fill-opacity:1;fill-rule:nonzero;stroke:none" />
      </g>
      <g
         transform="translate(876.976,701.3644)"
         id="g2570">
        <path
           d="M 0,0 C 5.439,0 9.849,4.409 9.849,9.849 C 9.849,15.288 5.439,19.697 0,19.697 C -5.439,19.697 -9.849,15.288 -9.849,9.849 C -9.849,4.409 -5.439,0 0,0"
           id="path2572"
           style="fill:#000000;fill-opacity:1;fill-rule:nonzero;stroke:none" />
      </g>
      <g
         transform="translate(875.8638,707.6814)"
         id="g2574">
        <path
           d="M 0,0 L 0,1.933 C 0,3.24 0.217,3.758 1.676,4.726 C 2.44,5.233 2.94,5.566 2.94,6.315 C 2.94,7.204 2.3,7.866 1.055,7.866 C -0.225,7.866 -0.893,7.061 -0.893,5.863 L -0.893,5.055 L -3.135,5.055 L -3.135,6.136 C -3.135,8.063 -1.381,10.054 1.055,10.054 C 3.558,10.054 5.282,8.338 5.282,6.187 C 5.282,4.774 4.691,4.161 3.078,2.978 C 2.326,2.426 2.227,2.33 2.227,1.531 L 2.227,0 L 0,0 z"
           id="path2576"
           style="fill:#ffffff;fill-opacity:1;fill-rule:nonzero;stroke:none" />
      </g>
      <path
         d="M 878.026,706.749 L 875.783,706.749 L 875.783,704.517 L 878.026,704.517 L 878.026,706.749 z"
         id="path2578"
         style="fill:#ffffff;fill-opacity:1;fill-rule:nonzero;stroke:none" />
    </g>
  </g>
  <g
     transform="matrix(1.25,0,0,-1.25,-654.96888,804.69276)"
     id="g2580">
    <g
       clip-path="url(#clipPath2584)"
       id="g2582">
      <g
         transform="translate(904.5703,549.1415)"
         id="g2588">
        <path
           d="M 0,0 C -1.516,0.26 -3.724,-0.933 -3.877,-3.249 C -3.998,-5.087 -2.599,-6.844 -0.043,-6.823 L -0.043,-6.801 C 0.443,-9.404 2.515,-10.653 4.029,-10.765 C 5.416,-10.867 7.191,-10.527 8.404,-8.577 C 9.985,-9.855 11.953,-9.485 12.996,-8.491 C 14.037,-7.498 14.101,-6.13 14.014,-5.653 L 14.036,-5.653 C 14.945,-5.913 16.491,-5.566 16.635,-3.899 C 16.744,-2.63 15.611,-1.711 14.463,-1.781 C 14.463,-1.781 14.461,-1.779 14.463,-1.771 C 14.896,-0.08 14.078,0.831 13.516,1.256 C 12.717,1.86 11.75,1.848 10.873,1.603 C 10.787,3.032 9.312,4.902 7.234,4.982 C 4.981,5.068 2.973,3.769 2.664,1.256 C 2.253,1.603 1.517,1.731 0.953,1.473 C 0.433,1.235 0.043,0.693 0,0"
           id="path2590"
           style="fill:#000000;fill-opacity:1;fill-rule:nonzero;stroke:none" />
      </g>
    </g>
  </g>
  <g
     transform="matrix(1.25,0,0,-1.25,-654.96888,804.69276)"
     id="g2904">
    <g
       clip-path="url(#clipPath2908)"
       id="g2906">
      <g
         transform="translate(1027.275,756.7222)"
         id="g2912">
        <path
           d="M 0,0 C 0,-0.726 0.589,-1.315 1.315,-1.315 L 11.562,-1.315 C 12.288,-1.315 12.877,-0.726 12.877,0 L 0,0 z"
           id="path2914"
           style="fill:#000000;fill-opacity:1;fill-rule:nonzero;stroke:none" />
      </g>
      <g
         transform="translate(1037.3644,758.1818)"
         id="g2916">
        <path
           d="M 0,0 C 0,-0.62 -0.503,-1.123 -1.123,-1.123 L -6.179,-1.123 C -6.799,-1.123 -7.3,-0.62 -7.3,0 L -7.3,5.011 L 0.229,5.01 C 1.477,5.01 2.494,3.997 2.494,2.748 C 2.494,1.499 1.482,0.487 0.233,0.487 L 0.001,0.487 C 0.001,0.354 0,0.073 0,0 M 0.233,1.383 C 0.987,1.383 1.598,1.994 1.598,2.748 C 1.598,3.502 0.987,4.113 0.233,4.113 L 0.001,4.113 L 0.001,1.38 C 0.001,1.38 0.135,1.383 0.233,1.383"
           id="path2918"
           style="fill:#000000;fill-opacity:1;fill-rule:nonzero;stroke:none" />
      </g>
      <g
         transform="translate(1040.1292,752.223)"
         id="g2920">
        <path
           d="M 0,0 C 1.027,0 1.86,0.833 1.86,1.86 L 1.86,14.674 C 1.86,15.701 1.027,16.534 0,16.534 L -12.814,16.534 C -13.841,16.534 -14.674,15.701 -14.674,14.674 L -14.674,1.86 C -14.674,0.833 -13.841,0 -12.814,0 L 0,0 z"
           id="path2922"
           style="fill:none;stroke:#000000;stroke-width:0.047;stroke-linecap:butt;stroke-linejoin:miter;stroke-miterlimit:4;stroke-dasharray:none;stroke-opacity:1" />
      </g>
    </g>
  </g>
  <g
     transform="matrix(1.25,0,0,-1.25,-654.96888,804.69276)"
     id="g2956">
    <g
       clip-path="url(#clipPath2960)"
       id="g2958">
      <g
         transform="translate(999.1783,713.0304)"
         id="g2964">
        <path
           d="M 0,0 C 0,4.252 3.447,7.698 7.699,7.698 C 11.95,7.698 15.397,4.252 15.397,0 C 15.397,-4.252 11.95,-7.699 7.699,-7.699 C 3.447,-7.699 0,-4.252 0,0"
           id="path2966"
           style="fill:#000000;fill-opacity:1;fill-rule:nonzero;stroke:none" />
      </g>
      <g
         transform="translate(1006.8777,703.1815)"
         id="g2968">
        <path
           d="M 0,0 C 5.439,0 9.849,4.409 9.849,9.849 C 9.849,15.288 5.439,19.697 0,19.697 C -5.439,19.697 -9.849,15.288 -9.849,9.849 C -9.849,4.409 -5.439,0 0,0"
           id="path2970"
           style="fill:#000000;fill-opacity:1;fill-rule:nonzero;stroke:none" />
      </g>
      <g
         transform="translate(1005.7656,709.4985)"
         id="g2972">
        <path
           d="M 0,0 L 0,1.933 C 0,3.24 0.217,3.758 1.676,4.726 C 2.44,5.233 2.94,5.566 2.94,6.315 C 2.94,7.204 2.3,7.866 1.055,7.866 C -0.225,7.866 -0.893,7.061 -0.893,5.863 L -0.893,5.055 L -3.135,5.055 L -3.135,6.136 C -3.135,8.063 -1.381,10.054 1.055,10.054 C 3.558,10.054 5.282,8.338 5.282,6.187 C 5.282,4.774 4.691,4.161 3.078,2.978 C 2.326,2.426 2.227,2.33 2.227,1.531 L 2.227,0 L 0,0 z"
           id="path2974"
           style="fill:#ffffff;fill-opacity:1;fill-rule:nonzero;stroke:none" />
      </g>
      <path
         d="M 1007.927,708.566 L 1005.684,708.566 L 1005.684,706.334 L 1007.927,706.334 L 1007.927,708.566 z"
         id="path2976"
         style="fill:#ffffff;fill-opacity:1;fill-rule:nonzero;stroke:none" />
    </g>
  </g>
  <g
     transform="matrix(1.25,0,0,-1.25,-654.96888,804.69276)"
     id="g2978">
    <g
       clip-path="url(#clipPath2982)"
       id="g2980">
      <g
         transform="translate(1005.9194,549.8243)"
         id="g2986">
        <path
           d="M 0,0 C -1.516,0.26 -3.724,-0.933 -3.877,-3.249 C -3.998,-5.087 -2.599,-6.844 -0.043,-6.823 L -0.043,-6.801 C 0.443,-9.404 2.515,-10.653 4.029,-10.765 C 5.416,-10.867 7.191,-10.527 8.404,-8.577 C 9.985,-9.855 11.953,-9.485 12.996,-8.491 C 14.037,-7.498 14.101,-6.13 14.014,-5.653 L 14.036,-5.653 C 14.945,-5.913 16.491,-5.566 16.635,-3.899 C 16.744,-2.63 15.611,-1.711 14.463,-1.781 C 14.463,-1.781 14.461,-1.779 14.463,-1.771 C 14.896,-0.08 14.078,0.831 13.516,1.256 C 12.717,1.86 11.75,1.848 10.873,1.603 C 10.787,3.032 9.312,4.902 7.234,4.982 C 4.981,5.068 2.973,3.769 2.664,1.256 C 2.253,1.603 1.517,1.731 0.953,1.473 C 0.433,1.235 0.043,0.693 0,0"
           id="path2988"
           style="fill:#000000;fill-opacity:1;fill-rule:nonzero;stroke:none" />
      </g>
    </g>
  </g>
  <path
     d="M 18.969074,11.440312 C 18.969074,11.440312 13.949899,11.440312 13.949899,16.459487 L 13.949899,37.730512 C 13.949899,37.730512 13.949899,42.749687 18.969074,42.749687 L 35.220924,42.749687 C 35.220924,42.749687 40.240099,42.749687 40.240099,37.730512 L 40.240099,16.459487 C 40.240099,16.459487 40.240099,11.440312 35.220924,11.440312 L 18.969074,11.440312 z"
     id="path3496"
     style="fill:none;stroke:#ffffff;stroke-width:4.42470026;stroke-linecap:butt;stroke-linejoin:miter;stroke-miterlimit:4;stroke-dasharray:none;stroke-opacity:1" />
  <path
     d="M 29,22.189999 C 31,22.189999 33,22.189999 35,22.189999 C 35,23.189999 35,24.189999 35,25.189999 C 33,25.189999 31,25.189999 29,25.189999 C 29,24.189999 29,23.189999 29,22.189999 z"
     id="rect3760"
     style="opacity:1;fill:#ffffff;fill-opacity:1;stroke:none;stroke-width:2.95000005;stroke-linecap:square;stroke-linejoin:miter;stroke-miterlimit:4;stroke-dasharray:none;stroke-opacity:0.47058824" />
  <path
     d="M 19,28.189999 C 24.333333,28.189999 29.666667,28.189999 35,28.189999 C 35,29.189999 35,30.189999 35,31.189999 C 29.666667,31.189999 24.333333,31.189999 19,31.189999 C 19,30.189999 19,29.189999 19,28.189999 z"
     id="rect3762"
     style="opacity:1;fill:#ffffff;fill-opacity:1;stroke:none;stroke-width:2.95000005;stroke-linecap:square;stroke-linejoin:miter;stroke-miterlimit:4;stroke-dasharray:none;stroke-opacity:0.47058824" />
  <path
     d="M 19,34.189999 C 24.333333,34.189999 29.666667,34.189999 35,34.189999 C 35,35.189999 35,36.189999 35,37.189999 C 29.666667,37.189999 24.333333,37.189999 19,37.189999 C 19,36.189999 19,35.189999 19,34.189999 z"
     id="rect3764"
     style="opacity:1;fill:#ffffff;fill-opacity:1;stroke:none;stroke-width:2.95000005;stroke-linecap:square;stroke-linejoin:miter;stroke-miterlimit:4;stroke-dasharray:none;stroke-opacity:0.47058824" />
  <path
     d="M 29,16.189999 C 31,16.189999 33,16.189999 35,16.189999 C 35,17.189999 35,18.189999 35,19.189999 C 33,19.189999 31,19.189999 29,19.189999 C 29,18.189999 29,17.189999 29,16.189999 z"
     id="rect3766"
     style="opacity:1;fill:#ffffff;fill-opacity:1;stroke:none;stroke-width:2.95000005;stroke-linecap:square;stroke-linejoin:miter;stroke-miterlimit:4;stroke-dasharray:none;stroke-opacity:0.47058824" />
  <path
     d="M 19,16.189999 C 21.666667,16.189999 24.333333,16.189999 27,16.189999 C 27,19.189999 27,22.189999 27,25.189999 C 24.333333,25.189999 21.666667,25.189999 19,25.189999 C 19,22.189999 19,19.189999 19,16.189999 z"
     id="rect3768"
     style="opacity:1;fill:#ffffff;fill-opacity:1;stroke:none;stroke-width:2.95000005;stroke-linecap:square;stroke-linejoin:miter;stroke-miterlimit:4;stroke-dasharray:none;stroke-opacity:0.47058824" />
</svg>
