<?xml version="1.0" encoding="UTF-8" standalone="no"?>
<!-- Created with Inkscape (http://www.inkscape.org/) -->
<svg
   xmlns:svg="http://www.w3.org/2000/svg"
   xmlns="http://www.w3.org/2000/svg"
   version="1.0"
   width="54.189999"
   height="54.189999"
   id="svg2483">
  <defs
     id="defs2486" />
  <path
     d="M 3.5711926,1.1883231 L 3.5816039,8.8634845 L 11.24755,14.871337 L 11.24755,24.894905 L 15.282902,24.894905 L 15.282675,14.871337 L 23.058454,8.840047 L 23.051893,1.1883231 L 3.5711926,1.1883231 z M 7.574667,5.3603532 L 11.223548,5.3603532 L 11.223548,10.152306 L 7.5986692,7.5640206 L 7.574667,5.3603532 z M 15.275889,5.3603532 L 18.904406,5.3852435 L 18.904406,7.5640206 L 15.275889,10.152635 L 15.275889,5.3603532 z"
     id="rect2494"
     style="fill:#f2304a;fill-opacity:1;stroke:#ffffff;stroke-width:1.38403547;stroke-linecap:square;stroke-linejoin:round;stroke-miterlimit:4;stroke-dasharray:none;stroke-opacity:1" />
  <path
     d="M 18.523975,33.038047 L 19.780429,35.865741 L 23.135954,34.43569 L 24.992336,38.613545 C 24.090776,39.631374 23.806548,41.097228 24.39183,42.414427 C 24.977112,43.731626 26.266096,44.527012 27.641075,44.57463 L 29.463497,48.676061 L 26.159996,50.083942 L 27.416449,52.911637 L 37.104168,48.813242 L 35.847715,45.985547 L 32.36213,47.471027 L 30.528388,43.344121 C 31.429947,42.326292 31.714174,40.860436 31.128894,39.543239 C 30.543611,38.226041 29.254628,37.430654 27.879648,37.383036 L 26.034587,33.230655 L 29.468148,31.767346 L 28.211695,28.939652 L 18.523975,33.038047 z"
     id="path3282"
     style="fill:#f2304a;fill-opacity:1;stroke:#ffffff;stroke-width:1.34753299;stroke-linecap:butt;stroke-linejoin:round;stroke-miterlimit:4;stroke-dasharray:none;stroke-opacity:1" />
  <rect
     width="11.45768"
     height="8.3296642"
     x="13.036653"
     y="44.352829"
     transform="matrix(0.9199403,-0.3920584,0.4060575,0.9138475,0,0)"
     id="rect3294"
     style="fill:#f2304a;fill-opacity:1;stroke:#ffffff;stroke-width:1.30031884;stroke-linecap:butt;stroke-linejoin:round;stroke-miterlimit:4;stroke-dasharray:none;stroke-opacity:1" />
  <rect
     width="12.683738"
     height="8.4834995"
     x="-8.3916464"
     y="44.290195"
     transform="matrix(0.9199403,-0.3920584,0.4060575,0.9138475,0,0)"
     id="rect3296"
     style="fill:#f2304a;fill-opacity:1;stroke:#ffffff;stroke-width:1.30031884;stroke-linecap:butt;stroke-linejoin:round;stroke-miterlimit:4;stroke-dasharray:none;stroke-opacity:1" />
  <path
     d="M 41.247098,4.5355797 C 39.657476,4.5355797 38.355099,5.7989576 38.355097,7.3752947 C 38.355097,8.454721 38.965986,9.3921423 39.857804,9.8776177 C 39.858958,10.389089 39.864001,12.388562 39.857804,13.448348 C 38.416906,15.207556 37.504509,21.714449 37.504509,21.714449 L 33.96039,21.742566 L 33.96039,24.947788 L 48.477101,24.891556 L 48.477101,21.714449 L 44.961335,21.714449 C 44.961335,21.714449 43.934812,15.237532 42.437923,13.532696 C 42.43457,12.469264 42.457677,10.545755 42.466275,9.9619656 C 43.449778,9.5075221 44.139098,8.521584 44.139099,7.3752947 C 44.139099,5.7989574 42.836722,4.5355795 41.247098,4.5355797 z"
     id="path3318"
     style="fill:#f2304a;fill-opacity:1;stroke:#ffffff;stroke-width:1.35524261;stroke-linecap:square;stroke-linejoin:round;stroke-miterlimit:4;stroke-dasharray:none;stroke-opacity:1" />
  <path
     d="M 31.697993,1.1339572 C 32.486805,1.1339572 33.275617,1.1339572 34.06443,1.1339572 C 30.854956,6.097419 30.774719,8.0748382 34.06443,14.020551 C 33.275617,14.020551 32.486805,14.020551 31.697993,14.020551 C 28.809466,9.7643097 28.809466,5.3509085 31.697993,1.1339572 z"
     id="rect3323"
     style="fill:#f2304a;fill-opacity:1;stroke:#ffffff;stroke-width:1.30837679;stroke-linecap:square;stroke-linejoin:round;stroke-miterlimit:4;stroke-dasharray:none;stroke-opacity:1" />
  <path
     d="M 35.695765,3.4997394 C 36.279136,3.4997394 36.862507,3.4997394 37.445879,3.4997394 C 35.072292,6.5953704 35.012952,7.8286537 37.445879,11.536899 C 36.862507,11.536899 36.279136,11.536899 35.695765,11.536899 C 33.559536,8.8823497 33.559536,6.1297836 35.695765,3.4997394 z"
     id="path3327"
     style="fill:#f2304a;fill-opacity:1;stroke:#ffffff;stroke-width:0.88858861;stroke-linecap:square;stroke-linejoin:round;stroke-miterlimit:4;stroke-dasharray:none;stroke-opacity:1" />
  <path
     d="M 50.733631,1.1536024 C 49.944819,1.1536024 49.156006,1.1536024 48.367194,1.1536024 C 51.576668,6.1170642 51.656905,8.0944832 48.367194,14.040196 C 49.156006,14.040196 49.944819,14.040196 50.733631,14.040196 C 53.622158,9.7839546 53.622158,5.3705536 50.733631,1.1536024 z"
     id="path3329"
     style="fill:#f2304a;fill-opacity:1;stroke:#ffffff;stroke-width:1.30837679;stroke-linecap:square;stroke-linejoin:round;stroke-miterlimit:4;stroke-dasharray:none;stroke-opacity:1" />
  <path
     d="M 46.735858,3.5193845 C 46.152488,3.5193845 45.569116,3.5193845 44.985745,3.5193845 C 47.359332,6.6150154 47.418671,7.8482986 44.985745,11.556543 C 45.569116,11.556543 46.152488,11.556543 46.735858,11.556543 C 48.872087,8.9019947 48.872087,6.1494288 46.735858,3.5193845 z"
     id="path3331"
     style="fill:#f2304a;fill-opacity:1;stroke:#ffffff;stroke-width:0.88858861;stroke-linecap:square;stroke-linejoin:round;stroke-miterlimit:4;stroke-dasharray:none;stroke-opacity:1" />
</svg>
