<?xml version="1.0" encoding="UTF-8" standalone="no"?>
<!DOCTYPE svg PUBLIC "-//W3C//DTD SVG 1.1 Tiny//EN" "http://www.w3.org/Graphics/SVG/1.1/DTD/svg11-tiny.dtd">
<svg xmlns="http://www.w3.org/2000/svg" xmlns:xlink="http://www.w3.org/1999/xlink" baseProfile="tiny" height="1000" version="1.0" viewBox="0 0 250 1000" width="250">
<defs>
<linearGradient id="linearGradient3136">
<stop offset="0" style="stop-color:#0d6796;stop-opacity:1"/>
<stop offset="1" style="stop-color:#0d6796;stop-opacity:0"/>
</linearGradient>
<linearGradient gradientUnits="userSpaceOnUse" x1="325.56479" x2="325.56479" xlink:href="#linearGradient3136" y1="683.63409" y2="28.545473"/>
</defs>
<path d="M 124.74517,95.831581 C 164.60734,94.510506 199.12533,134.66094 195.521,176.95324 C 195.45991,342.18661 195.64323,359.42325 195.42925,524.65456 C 209.20749,524.84489 225.7716,524.58724 240.41417,524.86964 C 124.56742,651.64344 240.29011,525.4011 123.57847,652.92776 C 12.577525,524.3173 123.81633,653.46373 12.088899,524.39462 C 26.270489,524.56058 39.181629,524.63116 53.969299,524.63506 C 54.030389,360.30302 53.847079,331.96768 54.061049,167.63769 C 55.241659,128.24103 87.883209,95.072638 124.74517,95.831581 z " style="fill:#00adef;fill-opacity:0.78431373;fill-rule:evenodd;stroke:#000000;stroke-width:10;stroke-miterlimit:4;stroke-dasharray:none;stroke-opacity:1"/>
<path d="M 124.68038,766.80778 C 161.15049,734.92752 162.92755,731.88346 195.45621,700.29276 C 195.39512,865.52613 195.57844,700.69566 195.36446,865.92697 C 209.1427,866.1173 225.70681,865.85965 240.34938,866.14205 C 123.75904,995.47816 240.16843,865.12948 123.51368,994.20014 C 12.512735,864.65192 125.68404,994.87348 12.024109,865.66703 C 26.205699,865.83299 39.116839,865.90357 53.904509,865.90747 C 53.965599,701.57543 53.782289,865.3072 53.996259,700.97721 C 87.559862,731.52574 90.651362,735.76433 124.68038,766.80778 z " style="fill:#8adbf9;fill-opacity:0.48026315;fill-rule:evenodd;stroke:#000000;stroke-width:10;stroke-miterlimit:4;stroke-dasharray:none;stroke-opacity:1"/>
</svg>
