<?xml version="1.0" encoding="UTF-8" standalone="no"?>
<!DOCTYPE svg PUBLIC "-//W3C//DTD SVG 1.1 Tiny//EN" "http://www.w3.org/Graphics/SVG/1.1/DTD/svg11-tiny.dtd">
<svg xmlns="http://www.w3.org/2000/svg" baseProfile="tiny" height="210" version="1.0" viewBox="0 0 210 210" width="210">
<path d="M 59.175028,51.868817 C 42.620502,65.702813 32.089367,86.504369 32.089367,109.76531 C 32.089367,151.41531 65.853117,185.17906 107.50312,185.17906 L 107.50311,185.17907 C 131.90214,185.17906 153.59481,173.5922 167.37882,155.62078 C 177.1246,142.91435 182.91686,127.01628 182.91686,109.76531 C 182.91686,90.14239 175.42227,72.269717 163.13934,58.853801" style="fill:none;stroke:#7a7a7a;stroke-width:4.42500019;stroke-linecap:round;stroke-linejoin:miter;stroke-miterlimit:4;stroke-dasharray:none;stroke-opacity:1"/>
<path d="M 62.158482,68.888397 C 73.558482,68.888397 82.800982,59.647147 82.800982,48.245897 C 82.800982,36.845897 73.558482,27.603397 62.158482,27.603397 C 50.758482,27.603397 41.515982,36.845897 41.515982,48.245897 C 41.515982,59.647147 50.758482,68.888397 62.158482,68.888397 z " style="fill:none;stroke:#6d6d6d;stroke-width:6.63749981;stroke-linecap:butt;stroke-linejoin:miter;stroke-miterlimit:4;stroke-dasharray:none;stroke-opacity:1"/>
<path d="M 121.54128,115.33438 C 125.56078,118.11836 130.43942,119.74949 135.69891,119.74949 L 135.69891,119.74949 C 149.44766,119.74949 160.59391,108.60324 160.59391,94.854488 C 160.59391,86.564218 156.54125,79.220642 150.30906,74.696331" style="fill:none;stroke:#c8c8c8;stroke-width:8.85000038;stroke-linecap:round;stroke-linejoin:miter;stroke-miterlimit:4;stroke-dasharray:none;stroke-opacity:1"/>
<path d="M 156.22614,95.579283 C 174.32864,95.579283 189.00489,80.904283 189.00489,62.801783 C 189.00489,44.698033 174.32864,30.023033 156.22614,30.023033 C 138.12364,30.023033 123.44864,44.698033 123.44864,62.801783 C 123.44864,80.904283 138.12364,95.579283 156.22614,95.579283 z " style="fill:none;stroke:#a8a8a8;stroke-width:22.125;stroke-linecap:butt;stroke-linejoin:miter;stroke-miterlimit:4;stroke-dasharray:none;stroke-opacity:1"/>
<path d="M 150.30906,74.696331 C 146.20566,71.717435 141.15739,69.960738 135.69891,69.960738 C 121.95016,69.960739 110.80391,81.105738 110.80391,94.854488 C 110.80391,103.34375 115.05346,110.8408 121.54128,115.33438" style="fill:none;stroke:#c8c8c8;stroke-width:8.85000038;stroke-linecap:round;stroke-linejoin:miter;stroke-miterlimit:4;stroke-dasharray:none;stroke-opacity:1"/>
<path d="M 163.13934,58.853801 C 149.35153,43.794193 129.53019,34.350308 107.50312,34.350308 C 89.114057,34.350308 72.262299,40.932277 59.175028,51.868817" style="fill:none;stroke:#7a7a7a;stroke-width:4.42500019;stroke-linecap:round;stroke-linejoin:miter;stroke-miterlimit:4;stroke-dasharray:none;stroke-opacity:1"/>
<g transform="matrix(1.25,0,0,-1.25,5.1174099,80.680526)">
<path d="M 0,0 C -2.748,-2.748 -2.748,-7.204 0,-9.952 L 0,-9.952 L 12.441,-22.393 L 0,-34.834 C -2.748,-37.582 -2.748,-42.038 0,-44.786 C 2.748,-47.534 7.204,-47.534 9.953,-44.786 L 22.393,-32.345 L 34.834,-44.786 C 37.582,-47.534 42.038,-47.534 44.786,-44.786 C 47.534,-42.038 47.534,-37.582 44.786,-34.834 L 32.346,-22.393 L 44.786,-9.952 C 47.534,-7.204 47.534,-2.748 44.786,0 C 42.038,2.748 37.582,2.748 34.834,0 L 22.393,-12.441 L 9.953,0 L 9.953,0 C 7.204,2.748 2.748,2.748 0,0" style="fill:#9c9c9c;fill-opacity:1;fill-rule:nonzero;stroke:none"/>
</g>
<g transform="matrix(1.25,0,0,-1.25,134.37694,150.17322)">
<path d="M 0,0 C 0,11.685 -9.473,21.158 -21.158,21.158 C -32.843,21.158 -42.316,11.685 -42.316,0 C -42.316,-11.685 -32.843,-21.158 -21.158,-21.158 C -9.473,-21.158 0,-11.685 0,0 M -15.772,0 L -9.04,-6.732 C -7.552,-8.22 -7.552,-10.631 -9.04,-12.118 C -10.527,-13.606 -12.938,-13.606 -14.426,-12.118 L -21.158,-5.386 L -27.89,-12.118 C -29.378,-13.606 -31.789,-13.606 -33.276,-12.118 C -34.764,-10.631 -34.764,-8.22 -33.276,-6.732 L -26.544,0 L -33.276,6.732 C -34.764,8.22 -34.764,10.631 -33.276,12.118 C -31.789,13.606 -29.378,13.606 -27.89,12.118 L -21.158,5.386 L -14.426,12.118 C -12.938,13.606 -10.527,13.606 -9.04,12.118 C -7.552,10.631 -7.552,8.22 -9.04,6.732 L -15.772,0 z " style="fill:#cdcdcd;fill-opacity:1;fill-rule:nonzero;stroke:none"/>
</g>
</svg>
