<?xml version="1.0" encoding="UTF-8" standalone="no"?>
<!DOCTYPE svg PUBLIC "-//W3C//DTD SVG 1.1 Tiny//EN" "http://www.w3.org/Graphics/SVG/1.1/DTD/svg11-tiny.dtd">
<svg xmlns="http://www.w3.org/2000/svg" baseProfile="tiny" height="50" version="1.0" viewBox="0 0 50 50" width="50">
<path d="M 4.6359255,32.054867 C 2.377333,36.345646 5.9267903,42.09224 7.7570039,44.162381 C 9.9280085,45.76989 8.2685734,44.508947 10.445889,46.108275 C 10.944659,46.602269 11.817074,46.715326 12.302332,46.138105 C 14.719695,42.86104 16.56263,40.331895 18.97181,37.048517 C 19.465804,36.549749 19.600787,35.655068 19.023566,35.169808 C 18.490998,34.629331 16.527393,33.031613 15.916343,32.393687 C 15.357571,31.404855 15.571396,31.314388 16.179804,30.478602 L 30.348313,16.215908 C 30.816061,15.772299 31.277646,15.553392 32.009482,15.845521 C 32.664792,16.443758 34.585201,18.318297 35.13911,18.847458 C 35.633243,19.417099 36.52607,19.312482 37.017135,18.810828 C 40.262835,16.351126 42.762818,14.425081 46.002082,11.957293 C 46.571726,11.463163 46.445181,10.592601 45.943527,10.101536 C 44.310697,7.9492307 45.597511,9.6331461 43.956598,7.4872788 C 41.858383,5.6893206 36.374996,2.1399776 31.824162,4.5316695 C 20.302875,10.991897 11.295093,19.85767 4.6359255,32.054867 z" style="opacity:1;fill:#ffffff;fill-opacity:1;stroke:#000000;stroke-width:1;stroke-miterlimit:4;stroke-dasharray:none;stroke-opacity:0.47058824"/>
</svg>
