<?xml version="1.0" encoding="UTF-8" standalone="no"?>
<!DOCTYPE svg PUBLIC "-//W3C//DTD SVG 1.1 Tiny//EN" "http://www.w3.org/Graphics/SVG/1.1/DTD/svg11-tiny.dtd">
<svg xmlns="http://www.w3.org/2000/svg" baseProfile="tiny" height="50" version="1.0" viewBox="0 0 50 50" width="50">
<g>
<path d="M 7.3214341,3.5872356 C 19.233898,3.5999301 31.147636,3.5618198 43.059302,3.6063382 C 45.346418,3.7605043 46.704908,6.1114258 46.392094,8.234776 C 46.379401,19.835902 46.417506,31.438302 46.372991,43.03863 C 46.218826,45.325747 43.867904,46.684237 41.744554,46.371423 C 30.143427,46.35873 18.541027,46.396834 6.9406978,46.352319 C 4.6535817,46.198154 3.2950923,43.847232 3.6079064,41.723882 C 3.6205988,30.122756 3.5824935,18.520356 3.627009,6.9200274 C 3.7814147,5.066038 5.4608639,3.5513171 7.3214341,3.5872356 z" style="fill:#4570b5;fill-opacity:1;fill-rule:evenodd;stroke:#8fa9d2;stroke-width:4.39056301;stroke-miterlimit:4;stroke-dasharray:none;stroke-opacity:1"/>
<rect height="7.1428576" style="fill:#8fa9d2;fill-opacity:1;stroke:none;stroke-opacity:1" width="39.39394" x="5.2960601" y="38.839115"/>
<path d="M 33.729683,21.905831 C 35.187235,21.905831 37.798919,21.873772 39.256471,21.873772 C 39.256471,24.207819 39.256471,26.541867 39.256471,28.875916 C 37.798919,28.875916 35.187235,28.907975 33.729683,28.907975 C 33.729683,34.89191 33.729683,38.875845 33.729683,44.859781 C 30.664315,44.859781 29.598949,44.859781 26.533583,44.859781 C 26.533583,38.875845 26.533583,34.89191 26.533583,28.907975 C 25.391583,28.907975 21.841537,28.907975 20.699537,28.907975 C 20.699537,26.573926 20.699537,24.239878 20.699537,21.905831 C 21.841537,21.905831 25.391583,21.905831 26.533583,21.905831 C 26.53924,19.472365 26.295032,15.692393 27.597447,13.584681 C 29.008114,11.301783 30.360915,10.703523 33.225388,10.103902 C 35.615478,9.6035837 37.734192,9.8601377 39.224508,9.8689283 C 39.203786,11.569 39.228402,14.862366 39.23035,16.290406 C 37.821842,16.29918 35.886929,16.090097 34.608721,16.9872 C 33.524434,17.7482 33.764336,20.69417 33.729683,21.905831 z" style="font-size:47.13126755px;font-style:normal;font-variant:normal;font-weight:900;font-stretch:normal;text-align:start;line-height:125%;writing-mode:lr-tb;text-anchor:start;fill:#ffffff;fill-opacity:1;stroke:none;stroke-width:1px;stroke-linecap:butt;stroke-linejoin:miter;stroke-opacity:1;font-family:Arial Black;-inkscape-font-specification:Arial Black Heavy"/>
</g>
</svg>
