<?xml version="1.0" encoding="UTF-8" standalone="no"?>
<!DOCTYPE svg PUBLIC "-//W3C//DTD SVG 1.1 Tiny//EN" "http://www.w3.org/Graphics/SVG/1.1/DTD/svg11-tiny.dtd">
<svg xmlns="http://www.w3.org/2000/svg" baseProfile="tiny" height="50" version="1.0" viewBox="0 0 50 50" width="50">
<path d="M 3.4106772,17.009804 C 13.760161,10.915044 13.82811,10.888902 24.924156,4.191234 C 36.953397,11.416943 36.956619,11.480419 46.303364,17.233716 C 46.783765,17.853365 46.738681,17.880914 46.947573,18.559099 C 46.947573,26.173767 46.947573,32.979288 46.947573,40.593958 C 46.946862,41.991382 45.578929,43.530285 43.958308,43.560456 C 30.592439,43.560456 19.247867,43.560456 5.8819956,43.560456 C 4.1126414,43.532815 2.8520735,41.784462 2.9397691,40.219548 C 2.9397691,32.604885 2.9007385,25.306508 2.9007385,17.691839 L 3.0755509,17.36045 L 3.2381668,17.141487 L 3.4106772,17.009804 z" style="fill:#ffffff;fill-opacity:1;stroke:none;stroke-width:2.76013374;stroke-linejoin:round;stroke-miterlimit:4;stroke-dasharray:none;stroke-opacity:1"/>
<path d="M 5.6556046,18.803209 C 14.763326,13.418018 15.235292,13.395921 25,7.734567 C 35.585935,13.84226 35.691813,13.729156 43.814063,18.759015 C 44.580301,19.216085 44.33454,19.072614 44.380979,19.879325 C 44.380979,26.315793 44.380979,33.335667 44.380979,39.772137 C 44.4147,40.553123 44.13828,40.986778 43.089929,41.012281 C 31.327738,41.012281 18.253044,41.012281 6.4908522,41.012281 C 5.7924792,40.988917 5.610542,40.378219 5.6190204,39.455659 C 5.6190204,33.019194 5.6190204,25.582723 5.6190204,19.146255 L 5.6354681,18.799437 L 6.0533532,18.781112 L 5.6556046,18.803209 z" style="fill:#67a9c4;fill-opacity:1;stroke:#0d6796;stroke-width:2.76013374;stroke-linejoin:round;stroke-miterlimit:4;stroke-dasharray:none;stroke-opacity:1"/>
<path d="M 9.8030611,21.428061 L 25.249311,31.196939 L 39.946939,21.768922 L 40,21.6875 L 40,11.44697 L 9.8125,11.50947 L 9.8030611,21.428061 z" style="fill:#ffffff;fill-opacity:1;fill-rule:evenodd;stroke:#000000;stroke-width:1.10612202px;stroke-linecap:butt;stroke-linejoin:miter;stroke-opacity:1"/>
<path d="M 15.193754,15.647835 L 26.065521,15.647835" style="fill:none;fill-rule:evenodd;stroke:#918a8a;stroke-width:1px;stroke-linecap:butt;stroke-linejoin:miter;stroke-opacity:1"/>
<path d="M 13.226686,20.177232 L 33.843695,20.177232" style="fill:none;fill-rule:evenodd;stroke:#918a8a;stroke-width:1px;stroke-linecap:butt;stroke-linejoin:miter;stroke-opacity:1"/>
<path d="M 19.091392,24.589853 L 31.448661,24.518565" style="fill:none;fill-rule:evenodd;stroke:#918a8a;stroke-width:1.0170995px;stroke-linecap:butt;stroke-linejoin:miter;stroke-opacity:1"/>
<path d="M 5.803061,18.928061 L 25.249311,31.196939 L 44.196939,19.081422 L 44.1875,40.75 L 5.75,40.6875 L 5.803061,18.928061 z" style="fill:#ffffff;fill-opacity:1;fill-rule:evenodd;stroke:#0d6796;stroke-width:1.5;stroke-linecap:butt;stroke-linejoin:bevel;stroke-miterlimit:4;stroke-dasharray:none;stroke-opacity:1"/>
</svg>
