<?xml version="1.0" encoding="UTF-8" standalone="no"?>
<!DOCTYPE svg PUBLIC "-//W3C//DTD SVG 1.1 Tiny//EN" "http://www.w3.org/Graphics/SVG/1.1/DTD/svg11-tiny.dtd">
<svg xmlns="http://www.w3.org/2000/svg" baseProfile="tiny" height="50" version="1.0" viewBox="0 0 50 50" width="50">
<path d="M 21.033405,19.734596 C 20.996408,19.743354 20.954794,19.725582 20.917873,19.734596 C 19.59961,20.056533 18.316916,20.560491 17.105319,21.171904 C 15.893721,21.783317 14.755585,22.539283 13.677872,23.407715 C 12.600159,24.276147 11.590653,25.22926 10.674042,26.322253 C 9.7574315,27.415247 8.9376499,28.630424 8.2093619,29.915521 C 7.4810729,31.200619 6.8350869,32.583072 6.3223409,34.027817 C 5.8095949,35.47256 5.4370039,36.967431 5.1670209,38.539365 C 5.1161379,38.835626 5.1316859,39.157545 5.0899999,39.457643 C 9.9489595,45.25548 17.015537,48.999759 25,48.999759 C 32.984463,48.999759 40.051038,45.25548 44.91,39.457643 C 44.868319,39.157545 44.883861,38.835626 44.83298,38.539365 C 44.562999,36.967431 44.190404,35.47256 43.677656,34.027817 C 43.164917,32.583072 42.518927,31.200619 41.790634,29.915521 C 41.062353,28.630424 40.242566,27.415247 39.325959,26.322253 C 38.409352,25.22926 37.399842,24.276147 36.322131,23.407715 C 35.244417,22.539283 34.106283,21.783315 32.894681,21.171904 C 31.683087,20.560493 30.400391,20.056533 29.082128,19.734596 C 29.045207,19.725582 29.003592,19.743354 28.966597,19.734596 C 27.474058,19.325516 22.79394,19.455867 21.033405,19.734596 z" style="fill:#ffffff;fill-opacity:1;stroke:none;stroke-width:2.00099993;stroke-linecap:round;stroke-linejoin:miter;stroke-miterlimit:4;stroke-dasharray:none;stroke-opacity:1"/>
<path d="M 36.728603,12.781147 C 36.728603,19.287561 31.477529,24.562051 24.999999,24.562051 C 18.522472,24.562051 13.271397,19.287561 13.271397,12.781147 C 13.271397,6.2747318 18.522472,1.0002414 24.999999,1.0002414 C 31.477529,1.0002414 36.728603,6.2747318 36.728603,12.781147 L 36.728603,12.781147 z" style="fill:#ffffff;fill-opacity:1;stroke:none;stroke-width:0.667;stroke-linecap:round;stroke-linejoin:miter;stroke-miterlimit:4;stroke-dasharray:none;stroke-opacity:1"/>
<path d="M 24.999999,3.0759334 C 19.591794,3.0759334 15.207575,7.3914979 15.207575,12.715022 C 15.207575,16.798559 17.780592,20.29084 21.423334,21.695322 C 21.389974,21.702928 21.352451,21.687492 21.319159,21.695322 C 20.130488,21.974907 18.973887,22.412568 17.881393,22.943549 C 16.788901,23.474529 15.762647,24.131048 14.790876,24.885236 C 13.819106,25.639424 12.908838,26.467154 12.082334,27.416363 C 11.255828,28.365571 10.516634,29.420889 9.8599392,30.53693 C 9.2032446,31.652971 8.6207601,32.853561 8.1584197,34.108246 C 7.6960782,35.362932 7.3601147,36.66115 7.1166719,38.026294 C 7.070791,38.283581 7.0848099,38.563153 7.0472219,38.823771 C 11.428528,43.858899 17.800436,47.110613 24.999999,47.110613 C 32.199561,47.110613 38.57147,43.858899 42.952778,38.823771 C 42.915191,38.563153 42.929209,38.283581 42.883328,38.026294 C 42.639887,36.66115 42.303921,35.362932 41.841578,34.108246 C 41.379244,32.853561 40.796755,31.652971 40.140058,30.53693 C 39.483368,29.420889 38.74417,28.365571 37.917667,27.416363 C 37.091163,26.467154 36.180892,25.639424 35.209122,24.885236 C 34.237355,24.131048 33.211099,23.474528 32.118605,22.943549 C 31.026114,22.41257 29.869511,21.974907 28.68084,21.695322 C 28.647549,21.687492 28.610024,21.702928 28.576665,21.695322 C 32.219409,20.29084 34.792426,16.798559 34.792422,12.715022 C 34.792422,7.3914989 30.408206,3.0759334 24.999999,3.0759334 z" style="fill:#ff9c00;fill-opacity:1;stroke:none;stroke-width:2.00099993;stroke-linecap:round;stroke-linejoin:miter;stroke-miterlimit:4;stroke-dasharray:none;stroke-opacity:1"/>
</svg>
