<?xml version="1.0" encoding="UTF-8" standalone="no"?>
<!DOCTYPE svg PUBLIC "-//W3C//DTD SVG 1.1 Tiny//EN" "http://www.w3.org/Graphics/SVG/1.1/DTD/svg11-tiny.dtd">
<svg xmlns="http://www.w3.org/2000/svg" baseProfile="tiny" height="50" version="1.0" viewBox="0 0 50 50" width="50">
<path d="M 20.451345,5.5434999 L 22.171141,8.7665249 C 20.653559,9.0958779 19.549991,9.6826639 19.190161,10.371668 C 15.349888,10.510744 11.477341,10.781933 7.457331,11.212458 C 5.584815,11.650435 4.212063,13.248323 3.635562,15.072443 C 2.142666,23.344142 2.162437,31.268172 3.457214,39.417111 C 4.177125,41.463571 5.278656,42.941727 7.419114,43.455446 C 18.662335,44.821065 30.367193,44.771333 42.388298,43.417229 C 44.652635,43.116188 46.220106,41.69747 46.554025,39.417111 C 47.789313,31.442674 47.827568,23.353465 46.592243,15.199836 C 46.110146,13.153375 44.826024,11.399192 42.388298,11.123283 C 38.509893,10.761394 34.768522,10.504183 31.037644,10.371668 C 30.674704,9.6767039 29.556149,9.0943829 28.018447,8.7665249 L 30.069463,5.5434999 L 26.846438,5.5434999 L 25.024729,8.3970879 L 23.496021,5.5434999 L 20.451345,5.5434999 z" style="fill:#00adef;fill-opacity:1;stroke:#ffffff;stroke-width:2;stroke-linecap:butt;stroke-linejoin:miter;stroke-miterlimit:4;stroke-dasharray:none;stroke-opacity:1"/>
<path d="M 9.901,16.927 C 17.749864,14.354371 25.125062,14.539683 32.602,16.927 C 34.289652,17.595304 34.91843,18.383157 35.31,19.659 C 36.743288,26.256003 36.618022,28.386318 35.31,34.993 C 35.078825,36.080603 33.93839,37.061905 32.602,37.689 C 24.837259,40.24479 17.800371,40.134862 9.901,37.689 C 8.476951,37.088053 7.6477883,36.304909 7.265,34.993 C 5.8483553,28.321469 5.711192,26.124272 7.265,19.659 C 7.7219202,18.48197 8.8358696,17.474169 9.901,16.927 z" style="fill:#ffffff;fill-opacity:1;stroke:none;stroke-width:2;stroke-linecap:round;stroke-linejoin:round;stroke-miterlimit:4;stroke-dasharray:none;stroke-opacity:1"/>
<path d="M 44.277,19.919916 C 44.277537,21.765161 42.786408,23.261314 40.947,23.261314 C 39.107593,23.261314 37.616464,21.765161 37.617,19.919916 C 37.616464,18.074671 39.107593,16.578518 40.947,16.578518 C 42.786408,16.578518 44.277537,18.074671 44.277,19.919916 L 44.277,19.919916 z" style="fill:#0083b4;fill-opacity:1;stroke:none;stroke-width:2;stroke-linecap:round;stroke-linejoin:round;stroke-miterlimit:4;stroke-dasharray:none;stroke-opacity:1"/>
<path d="M 44.252,28.881 C 44.252537,30.726245 42.762408,32.223 40.923,32.223 C 39.083593,32.223 37.592464,30.726245 37.593,28.881 C 37.592464,27.035756 39.083593,25.54 40.923,25.54 C 42.762408,25.54 44.252537,27.035756 44.252,28.881 L 44.252,28.881 z" style="fill:#0083b4;fill-opacity:1;stroke:none;stroke-width:2;stroke-linecap:round;stroke-linejoin:round;stroke-miterlimit:4;stroke-dasharray:none;stroke-opacity:1"/>
</svg>
