<?xml version="1.0" encoding="UTF-8" standalone="no"?>
<!DOCTYPE svg PUBLIC "-//W3C//DTD SVG 1.1 Tiny//EN" "http://www.w3.org/Graphics/SVG/1.1/DTD/svg11-tiny.dtd">
<svg xmlns="http://www.w3.org/2000/svg" baseProfile="tiny" height="275" version="1.0" viewBox="0 0 465 275" width="465">
<defs/>
<image height="275" width="465" x="4.376658" y="0"/>
<path d="M 296.04249,73.474563 C 296.55448,95.738604 278.30534,116.5255 255.80736,118.93364 C 233.79035,122.20362 211.16461,107.20092 205.57115,86.019623 C 199.09261,64.965943 210.44985,40.453468 230.95496,31.695822 C 250.70574,22.363895 276.38871,29.678793 288.17224,47.852989 C 293.30649,55.369893 296.06984,64.413803 296.04249,73.474563 z " style="fill:none;fill-opacity:1;fill-rule:evenodd;stroke:#e3bbcd;stroke-width:1.74881685;stroke-opacity:1"/>
<rect height="128.75" rx="13" ry="12.75" style="fill:#0e252b;fill-opacity:1;fill-rule:evenodd;stroke:none;stroke-width:2.852;stroke-miterlimit:4;stroke-dasharray:none;stroke-opacity:1" width="69" x="163.62666" y="58.75"/>
<path d="M 337.34541,183.84375 C 329.54063,183.84375 323.22042,189.9541 323.22041,197.5 C 323.22041,205.04589 329.54063,211.15624 337.34541,211.15625 C 345.15019,211.15625 351.4704,205.04589 351.47041,197.5 C 351.47041,189.9541 345.15019,183.84376 337.34541,183.84375 z M 331.34541,188.6875 C 332.06608,188.69403 332.79814,188.98078 333.34541,189.53125 L 337.37666,193.59375 L 341.31416,189.625 C 341.86143,189.07453 342.59349,188.78778 343.31416,188.78125 C 344.03483,188.77472 344.75701,189.05328 345.31416,189.59375 C 346.42846,190.67469 346.43995,192.43031 345.34541,193.53125 L 341.34541,197.5625 L 345.25166,201.5 C 346.3462,202.60094 346.33471,204.35656 345.22041,205.4375 C 344.10611,206.51844 342.31495,206.50719 341.22041,205.40625 L 337.37666,201.53125 L 333.43916,205.5 C 332.34462,206.60094 330.55345,206.61219 329.43916,205.53125 C 328.32486,204.45031 328.31336,202.69468 329.40791,201.59375 L 333.40791,197.5625 L 329.31416,193.4375 C 328.2196,192.33655 328.23111,190.58094 329.34541,189.5 C 329.90257,188.95953 330.62474,188.68097 331.34541,188.6875 z " style="fill:#3eb630;fill-opacity:1;fill-rule:evenodd;stroke:none;stroke-opacity:1"/>
<path d="M 327.34541,59.84375 C 321.07667,59.84375 316.00167,64.918765 316.00166,71.1875 C 316.00166,77.456236 321.07668,82.531253 327.34541,82.53125 C 333.61415,82.53125 338.68916,77.456236 338.68916,71.1875 C 338.68916,64.918764 333.61415,59.843748 327.34541,59.84375 z M 322.53291,63.875 C 323.11157,63.88024 323.68736,64.105478 324.12666,64.5625 L 327.37666,67.9375 L 330.53291,64.65625 C 330.97221,64.199228 331.548,63.94274 332.12666,63.9375 C 332.70532,63.93226 333.30416,64.176007 333.75166,64.625 C 334.64666,65.522986 334.63026,66.960954 333.75166,67.875 L 330.53291,71.21875 L 333.68916,74.5 C 334.56774,75.414044 334.55291,76.883264 333.65791,77.78125 C 332.76292,78.679235 331.349,78.664045 330.47041,77.75 L 327.37666,74.53125 L 324.22041,77.84375 C 323.34182,78.757795 321.89667,78.772982 321.00166,77.875 C 320.10666,76.977014 320.09181,75.507798 320.97041,74.59375 L 324.18916,71.25 L 320.90791,67.8125 C 320.02932,66.898455 320.04416,65.429236 320.93916,64.53125 C 321.38667,64.082257 321.95425,63.86976 322.53291,63.875 z " style="fill:#e80a36;fill-opacity:1;fill-rule:evenodd;stroke:none;stroke-opacity:1"/>
<path d="M 225.93916,19.75 C 213.97033,19.75 204.25166,29.292084 204.25166,41.03125 C 204.25166,52.770418 213.97033,62.281251 225.93916,62.28125 C 237.90799,62.28125 247.62665,52.77042 247.62666,41.03125 C 247.62666,29.292082 237.90799,19.75 225.93916,19.75 z M 216.75166,27.3125 C 217.85725,27.322513 218.97469,27.768414 219.81416,28.625 L 226.00166,34.9375 L 232.03291,28.75 C 232.87238,27.893414 233.98982,27.478763 235.09541,27.46875 C 236.201,27.458737 237.30306,27.877508 238.15791,28.71875 C 239.86761,30.401233 239.89935,33.130577 238.22041,34.84375 L 232.06416,41.125 L 238.06416,47.25 C 239.7431,48.963174 239.71135,51.692517 238.00166,53.375 C 236.29196,55.057485 233.58685,55.025673 231.90791,53.3125 L 226.00166,47.28125 L 219.93916,53.46875 C 218.26022,55.181923 215.5551,55.213734 213.84541,53.53125 C 212.13571,51.848767 212.10397,49.119423 213.78291,47.40625 L 219.93916,41.125 L 213.62666,34.6875 C 211.94771,32.974328 211.97947,30.244983 213.68916,28.5625 C 214.54401,27.721258 215.64607,27.302487 216.75166,27.3125 z " style="fill:#fae215;fill-opacity:1;fill-rule:evenodd;stroke:none;stroke-opacity:1"/>
<rect height="88.240669" rx="0.75" ry="0.75" style="fill:#ffffff;fill-opacity:1;fill-rule:evenodd;stroke:#ffffff;stroke-width:0.70932955;stroke-miterlimit:4;stroke-dasharray:none;stroke-opacity:0.48026315" width="60.490669" x="168.13133" y="79.004662"/>
<path d="M 302.10766,88.562496 C 302.15089,91.938959 300.05752,95.170856 297.06615,96.534624 C 293.90197,98.061978 289.88304,97.415803 287.35276,94.927844 C 285.01342,92.740776 284.05494,89.153086 285.00688,86.0511 C 285.9798,82.631491 289.14607,80.065728 292.59421,79.803808 C 295.9285,79.459723 299.36885,81.264286 301.00292,84.277877 C 301.72609,85.575271 302.11065,87.067616 302.10766,88.562496 z " style="fill:none;fill-opacity:1;fill-rule:evenodd;stroke:#0fbe2a;stroke-width:7.28827143;stroke-miterlimit:4;stroke-dasharray:none;stroke-opacity:1"/>
<path d="M 278.99349,74.187499 C 279.11779,82.515853 272.47677,89.608539 265.06619,90.551078 C 257.18875,91.970574 248.45823,86.58101 246.55555,77.92608 C 244.71433,70.53857 248.77138,62.486566 255.08469,59.444212 C 262.82037,55.267265 273.3964,58.486993 277.37338,67.010516 C 278.43252,69.215972 278.9978,71.698732 278.99349,74.187499 z " style="fill:none;fill-opacity:1;fill-rule:evenodd;stroke:#d63440;stroke-width:5.61299992;stroke-miterlimit:4;stroke-dasharray:none;stroke-opacity:1"/>
<path d="M 262.7497,192.31712 C 262.87552,201.27134 257.1319,209.95895 248.73121,213.48653 C 240.59916,217.10049 230.43034,215.5168 223.85029,209.59774 C 217.17371,203.88131 214.38475,194.32223 216.86845,185.99478 C 219.25639,177.31906 227.26075,170.4482 236.38751,169.40708 C 244.99252,168.21918 254.01047,172.28659 258.75841,179.40459 C 261.36217,183.19289 262.76357,187.75078 262.7497,192.31712 z " style="fill:none;fill-opacity:1;fill-rule:evenodd;stroke:#55db2f;stroke-width:2.58399987;stroke-miterlimit:4;stroke-dasharray:none;stroke-opacity:1"/>
<path d="M 216.56416,209.28125 C 212.17724,209.36254 209.26018,215.10613 212.34541,218.46875 C 215.26966,221.41156 218.21065,224.32811 221.15791,227.25 C 218.28152,230.10593 215.39296,232.9417 212.53291,235.8125 C 209.24201,239.39929 212.79181,245.69175 217.65791,244.9375 C 221.24432,244.40449 223.09445,240.95043 225.65791,238.8125 C 226.84855,237.62651 228.05828,236.46474 229.25166,235.28125 C 230.37687,236.39734 231.50394,237.50666 232.62666,238.625 C 235.19012,240.76294 237.04026,244.21699 240.62666,244.75 C 245.49278,245.50422 249.04258,239.21178 245.75166,235.625 C 242.95401,232.81683 240.12758,230.04382 237.31416,227.25 C 240.19837,224.39019 243.07724,221.53635 245.93916,218.65625 C 249.23007,215.06946 245.68028,208.77698 240.81416,209.53125 C 239.49117,209.66222 238.2415,210.2598 237.31416,211.1875 C 234.62775,213.86148 231.94506,216.55113 229.25166,219.21875 C 226.49021,216.48381 223.72465,213.7415 220.97041,211 C 220.04274,210.07213 218.79373,209.47486 217.47041,209.34375 C 217.16628,209.29661 216.85662,209.27583 216.56416,209.28125 z " style="fill:#53c0df;fill-opacity:1;fill-rule:evenodd;stroke:none;stroke-opacity:1"/>
<path d="M 282.77015,197.92536 C 282.83328,203.39376 279.70379,208.73882 274.9232,211.32282 C 270.08772,214.05457 263.74885,213.70708 259.23913,210.45601 C 254.89478,207.45367 252.36757,202.04169 252.82114,196.75314 C 253.1769,191.19615 256.83517,186.02551 261.93573,183.88627 C 266.89887,181.70128 273.00622,182.56346 277.17475,186.0527 C 280.6918,188.89979 282.8024,193.37755 282.77015,197.92536 z " style="fill:none;fill-opacity:1;fill-rule:evenodd;stroke:#aa20d0;stroke-width:6.88100004;stroke-miterlimit:4;stroke-dasharray:none;stroke-opacity:1"/>
<path d="M 204.09061,177.87499 C 204.09061,180.96168 201.53238,183.46395 198.37666,183.46395 C 195.22093,183.46395 192.6627,180.96168 192.6627,177.87499 C 192.6627,174.7883 195.22093,172.28604 198.37666,172.28604 C 201.53238,172.28604 204.09061,174.7883 204.09061,177.87499 z " style="fill:none;fill-opacity:1;fill-rule:evenodd;stroke:#ffffff;stroke-width:0.77208859;stroke-miterlimit:4;stroke-dasharray:none;stroke-opacity:1"/>
<rect height="0.47503838" rx="0" ry="0" style="fill:none;fill-opacity:1;fill-rule:evenodd;stroke:#ffffff;stroke-width:0.72496158;stroke-miterlimit:4;stroke-dasharray:none;stroke-opacity:1" width="10.725039" x="193.13914" y="69.012482"/>
<path d="M 124.25566,42.87499 C 124.35968,50.798498 119.55624,58.494926 112.48544,61.707479 C 105.56743,65.02766 96.849959,63.719666 91.158634,58.494754 C 85.456192,53.508574 82.954157,45.126202 84.876294,37.712682 C 86.730764,29.905077 93.425987,23.591645 101.20468,22.455588 C 108.38072,21.236144 116.01957,24.48681 120.28352,30.515709 C 122.8619,34.056276 124.27086,38.458352 124.25566,42.87499 z " style="fill:none;fill-opacity:1;fill-rule:evenodd;stroke:#aa9073;stroke-width:6.56200027;stroke-miterlimit:4;stroke-dasharray:none;stroke-opacity:1"/>
<path d="M 92.907908,49.625 C 79.12966,49.625 67.970407,60.596354 67.970408,74.09375 C 67.970408,87.591147 79.129663,98.531252 92.907908,98.53125 C 106.68616,98.53125 117.87666,87.591148 117.87666,74.09375 C 117.87666,60.596353 106.68616,49.625 92.907908,49.625 z M 82.345408,58.3125 C 83.618151,58.324027 84.879006,58.827597 85.845408,59.8125 L 92.970408,67.09375 L 99.939158,60 C 100.90556,59.015097 102.16641,58.511527 103.43916,58.5 C 104.7119,58.488473 105.98633,58.970261 106.97041,59.9375 C 108.93857,61.871977 108.96571,64.998946 107.03291,66.96875 L 99.939158,74.1875 L 106.87666,81.25 C 108.80947,83.219802 108.78232,86.346773 106.81416,88.28125 C 104.84599,90.215726 101.68446,90.188556 99.751658,88.21875 L 92.970408,81.3125 L 86.001658,88.40625 C 84.068854,90.376056 80.938573,90.403228 78.970408,88.46875 C 77.002245,86.534273 76.975108,83.376055 78.907908,81.40625 L 86.001658,74.1875 L 78.751658,66.8125 C 76.818857,64.842695 76.845995,61.684477 78.814158,59.75 C 79.79824,58.782761 81.072665,58.300973 82.345408,58.3125 z " style="fill:#e80a36;fill-opacity:1;fill-rule:evenodd;stroke:none;stroke-opacity:1"/>
<path d="M 185.43767,59.332433 C 185.72429,74.207447 174.62443,88.327065 160.02035,91.478194 C 146.00615,94.983722 130.35213,87.827974 123.73007,75.057068 C 116.36856,61.938728 119.56584,44.081804 131.11352,34.387158 C 142.04113,24.513526 159.78034,23.65303 171.61391,32.428819 C 180.22585,38.507221 185.52201,48.810409 185.43767,59.332433 z " style="fill:none;fill-opacity:1;fill-rule:evenodd;stroke:#2c82b8;stroke-width:2.852;stroke-miterlimit:4;stroke-dasharray:none;stroke-opacity:1"/>
<path d="M 68.799535,141.1875 C 69.047066,153.42936 59.660866,165.00614 47.503142,167.28673 C 36.055056,169.83449 23.495704,163.74646 18.369381,153.31511 C 12.650375,142.58347 15.591032,128.23403 25.157662,120.63076 C 34.22644,112.87194 48.651009,112.52442 58.08789,119.83985 C 64.783664,124.7817 68.864762,132.91229 68.799535,141.1875 z " style="fill:none;fill-opacity:1;fill-rule:evenodd;stroke:#ff8a00;stroke-width:17.0739994;stroke-miterlimit:4;stroke-dasharray:none;stroke-opacity:1"/>
<path d="M 140.23483,140.31249 C 140.31141,146.6915 136.56119,152.92056 130.86669,155.86495 C 125.17098,158.94624 117.76068,158.45644 112.53063,154.64336 C 107.42157,151.07571 104.54011,144.67983 105.23362,138.51585 C 105.81774,132.05442 110.33609,126.14883 116.45432,123.88077 C 122.34895,121.57674 129.44725,122.82948 134.17317,127.02478 C 138.00331,130.31539 140.26799,135.28052 140.23483,140.31249 z " style="fill:none;fill-opacity:1;fill-rule:evenodd;stroke:#e293d2;stroke-width:3.15400004;stroke-miterlimit:4;stroke-dasharray:none;stroke-opacity:1"/>
<path d="M 144.03291,99.34375 C 138.36376,99.32243 133.11993,105.66259 137.03291,111.5 C 141.20151,115.85189 145.47812,120.14554 149.75166,124.40625 C 145.56831,128.58317 141.40212,132.77144 137.31416,137.03125 C 131.28893,145.64344 145.8321,154.13851 151.18916,145.40625 C 154.45109,142.1142 157.73735,138.85658 161.03291,135.59375 C 164.23466,138.76438 167.42597,141.95755 170.59541,145.15625 C 175.9525,153.88854 190.49569,145.39344 184.47041,136.78125 C 180.469,132.61162 176.3765,128.49578 172.28291,124.40625 C 176.46926,120.23029 180.63572,116.04555 184.72041,111.78125 C 190.04063,104.11964 178.75831,95.231041 172.25166,102 C 168.53158,105.75253 164.79095,109.49921 161.03291,113.21875 C 157.184,109.40972 153.34271,105.59303 149.53291,101.75 C 147.86901,100.07268 145.92263,99.350857 144.03291,99.34375 z " style="fill:#38ac35;fill-opacity:1;fill-rule:evenodd;stroke:none;stroke-opacity:1"/>
<path d="M 135.67158,160.3125 C 136.09005,179.18876 120.86675,196.89291 101.77922,199.43064 C 83.446728,202.57927 64.142173,191.16016 58.129904,173.91872 C 51.451374,156.78921 58.826233,135.77597 74.953461,126.46803 C 90.666857,116.6148 113.10047,119.85922 125.2888,133.70443 C 131.95387,140.91028 135.71904,150.57827 135.67158,160.3125 z " style="fill:none;fill-opacity:1;fill-rule:evenodd;stroke:#ebe75d;stroke-width:2.02699995;stroke-miterlimit:4;stroke-dasharray:none;stroke-opacity:1"/>
<path d="M 117.56446,121.25 C 117.61235,125.77684 115.11752,130.21766 111.21612,132.551 C 107.22113,135.0352 101.86604,135.09937 97.811278,132.71333 C 93.862015,130.47803 91.261496,126.10936 91.193083,121.59104 C 91.032635,117.11229 93.358218,112.65208 97.134209,110.20446 C 101.03501,107.57633 106.38334,107.31967 110.52311,109.55535 C 114.59323,111.66736 117.36238,116.00857 117.54748,120.57005 C 117.55888,120.79651 117.56452,121.02326 117.56446,121.25 z " style="fill:none;fill-opacity:1;fill-rule:evenodd;stroke:#38ac35;stroke-width:4.44400024;stroke-miterlimit:4;stroke-dasharray:none;stroke-opacity:1"/>
<path d="M 135.00166,167.71875 C 118.02391,167.71875 104.25166,181.561 104.25166,198.625 C 104.25166,215.689 118.02391,229.53125 135.00166,229.53125 C 151.97941,229.53125 165.75166,215.68901 165.75166,198.625 C 165.75166,181.561 151.97942,167.71875 135.00166,167.71875 z M 121.37666,178.71875 C 123.13571,178.56117 124.94387,179.1936 126.28291,180.59375 L 135.06416,189.78125 L 143.65791,180.8125 C 144.84817,179.56792 146.40248,178.92045 147.97041,178.90625 C 149.53834,178.89205 151.10156,179.49592 152.31416,180.71875 C 154.73936,183.1644 154.78842,187.13585 152.40791,189.625 L 143.65791,198.78125 L 152.18916,207.6875 C 154.56968,210.17666 154.55186,214.1481 152.12666,216.59375 C 149.70146,219.0394 145.81968,218.98916 143.43916,216.5 L 135.06416,207.75 L 126.50166,216.71875 C 124.12114,219.20791 120.23936,219.25815 117.81416,216.8125 C 115.38896,214.36685 115.37114,210.3954 117.75166,207.90625 L 126.47041,198.78125 L 117.53291,189.4375 C 115.15238,186.94834 115.20146,182.9769 117.62666,180.53125 C 118.68768,179.46128 120.00851,178.84131 121.37666,178.71875 z " style="fill:#efcddd;fill-opacity:1;fill-rule:evenodd;stroke:none;stroke-opacity:1"/>
<path d="M 248.58239,127.9375 C 248.58239,131.50551 248.58239,135.07351 248.58239,138.64152 C 252.63006,133.74864 260.63426,135.35372 263.20116,141.07 C 266.43645,147.27139 263.6811,156.6394 256.74236,158.18196 C 254.13325,158.21612 250.71106,158.51396 248.58239,156.31494 C 249.24382,158.62848 246.78996,157.62783 245.46625,157.82949 C 243.42646,158.46389 243.29171,157.07163 243.53291,155.27943 C 243.53291,146.16545 243.53291,137.05148 243.53291,127.9375 C 245.21607,127.9375 246.89922,127.9375 248.58239,127.9375 z M 253.92998,140.70304 C 248.7394,140.40566 246.57925,148.05131 249.94258,151.65484 C 252.85196,155.21577 258.95271,153.05003 259.3457,148.36188 C 260.09515,144.70445 257.69414,140.53731 253.92998,140.70304 z M 268.70576,136.26285 C 270.41997,136.26285 272.13418,136.26285 273.8484,136.26285 C 273.98589,141.12672 273.50876,146.05236 274.2397,150.86196 C 275.50392,155.21542 282.16809,153.32133 281.36876,148.81934 C 281.46035,144.63521 281.39233,140.44822 281.41331,136.26285 C 283.1151,136.26285 284.81688,136.26285 286.51867,136.26285 C 286.31924,141.88257 287.08953,147.65288 285.6802,153.13161 C 283.09938,160.50301 271.16224,160.14454 269.30201,152.37836 C 268.29321,147.10962 268.85162,141.61596 268.70576,136.26285 z M 306.58615,127.9375 C 308.27552,127.9375 309.96489,127.9375 311.65426,127.9375 C 311.65426,137.9015 311.65426,147.86549 311.65426,157.82949 C 309.96489,157.82949 308.27552,157.82949 306.58615,157.82949 C 306.62057,155.74627 303.10157,158.36299 299.85689,158.37185 C 293.36952,158.09811 289.38402,150.4288 290.9449,144.13997 C 291.85388,137.82733 299.03399,133.46156 304.40961,136.85382 C 306.37498,138.86352 306.86512,138.71495 306.58616,136.09147 C 306.58615,133.37347 306.58615,130.65549 306.58615,127.9375 z M 301.23854,140.70304 C 295.86686,140.45856 293.86897,148.7051 297.74477,152.04789 C 300.9934,155.31346 306.89332,152.44926 306.80363,147.7079 C 307.27505,144.15325 304.75863,140.53081 301.23854,140.70304 z M 331.77766,127.9375 C 333.46703,127.9375 335.1564,127.9375 336.84577,127.9375 C 336.84577,137.9015 336.84577,147.86549 336.84577,157.82949 C 335.1564,157.82949 333.46703,157.82949 331.77766,157.82949 C 331.82448,155.92327 327.90163,158.4269 325.04838,158.37185 C 318.56101,158.0981 314.57549,150.42881 316.13639,144.13997 C 317.04537,137.82732 324.22548,133.46157 329.60111,136.85382 C 331.56646,138.86352 332.05661,138.71494 331.77766,136.09147 C 331.77766,133.37347 331.77766,130.65549 331.77766,127.9375 z M 326.43006,140.70304 C 321.05836,140.45854 319.06043,148.70511 322.93626,152.04789 C 326.18489,155.31346 332.0848,152.44926 331.99512,147.7079 C 332.46656,144.15325 329.9501,140.53081 326.43006,140.70304 z M 339.73383,136.26285 C 341.46668,136.26285 343.19952,136.26285 344.93237,136.26285 C 346.69006,140.77572 348.44775,145.28859 350.20544,149.80146 C 352.14325,145.28859 354.08106,140.77572 356.01887,136.26285 C 357.75792,136.26285 359.49699,136.26285 361.23605,136.26285 C 357.0002,146.08148 352.76434,155.90012 348.52849,165.71876 C 346.77702,165.71876 345.02554,165.71876 343.27407,165.71876 C 344.66532,162.5538 346.05655,159.38884 347.4478,156.22388 C 344.87648,149.57021 342.30516,142.91653 339.73383,136.26285 z " style="font-size:39.35910797px;font-style:normal;font-variant:normal;font-weight:bold;font-stretch:normal;text-align:start;line-height:125%;writing-mode:lr-tb;text-anchor:start;fill:#000000;fill-opacity:1;stroke:none;stroke-width:1px;stroke-linecap:butt;stroke-linejoin:miter;stroke-opacity:1;font-family:Century Gothic"/>
<path d="M 380.63989,140.82301 C 379.00912,142.79652 377.99729,141.57765 376.60177,139.882 C 372.41533,136.68225 365.72254,138.73092 364.2724,144.54585 C 362.71867,149.85446 366.49849,155.95109 371.3921,155.93587 C 374.38228,156.61675 377.16102,153.83057 379.03129,152.3947 C 382.22449,153.54941 378.66578,156.26909 377.02095,157.21477 C 371.85785,160.18346 364.54343,158.05115 362.25146,151.63006 C 359.8543,145.43098 363.39522,137.48403 369.20866,136.15669 C 373.29635,135.03723 378.40939,136.40737 380.63989,140.82301 z M 384.90663,127.99553 C 385.79894,128.25057 387.79326,127.23883 387.32505,129.05779 C 387.32505,138.68504 387.32505,148.31229 387.32505,157.93955 C 386.43274,157.68451 384.43842,158.69625 384.90663,156.87729 C 384.90663,147.25004 384.90663,137.62279 384.90663,127.99553 z M 401.28264,135.77939 C 407.34272,135.44166 412.21831,142.71734 410.88873,149.38935 C 410.05135,155.23349 404.80404,159.51128 399.71874,158.37651 C 393.62597,157.62587 389.82005,149.3701 392.13593,143.00726 C 393.54069,138.74997 397.26548,135.61142 401.28264,135.77939 z M 401.28264,138.49977 C 395.87647,138.28405 392.25706,145.78677 394.71221,151.11378 C 396.71767,156.68063 404.12598,157.50669 407.08678,152.58008 C 410.4028,147.84495 408.00475,139.77011 402.72558,138.65988 L 402.01692,138.5398 L 401.28264,138.49977 L 401.28264,138.49977 z M 415.22296,136.33537 C 416.12067,136.59081 418.12097,135.57882 417.65864,137.39763 C 417.7609,142.09904 417.39077,146.84666 418.00412,151.50595 C 419.29994,157.11345 427.35863,157.25762 428.83508,151.72438 C 429.49193,146.64329 429.08304,141.46333 429.19785,136.33537 C 430.10605,136.59199 432.11911,135.57857 431.66807,137.39763 C 431.52712,142.39708 432.04836,147.47309 431.15792,152.40076 C 430.0688,157.72471 424.4933,159.59297 420.38378,157.99524 C 416.57435,156.7836 415.12023,151.98158 415.23714,147.85588 C 415.20612,144.01606 415.23091,140.17545 415.22296,136.33537 z M 455.78291,127.99553 C 455.78291,137.97687 455.78291,147.95821 455.78291,157.93955 C 454.75695,157.78059 452.88445,158.59473 453.39909,156.66485 C 453.31504,156.85385 453.60826,153.242 452.20673,155.67185 C 448.12291,160.26575 440.70247,159.03322 437.79988,153.41655 C 434.53172,147.93732 436.47569,139.57728 441.77694,136.82864 C 445.71964,134.58501 450.98463,135.97126 453.39908,140.30674 C 453.39908,136.203 453.39908,132.09926 453.39909,127.99553 C 454.19369,127.99553 454.9883,127.99553 455.78291,127.99553 z M 446.10935,138.46005 C 440.9245,138.19292 437.08491,145.14722 439.22015,150.49078 C 440.80164,155.71146 446.98992,157.68119 450.69619,154.17545 C 455.1863,150.46559 454.19433,141.36258 449.00493,139.09053 C 448.09039,138.65251 447.09696,138.45848 446.10935,138.46005 z " style="font-size:37.93009949px;font-style:normal;font-variant:normal;font-weight:normal;font-stretch:normal;text-align:start;line-height:125%;writing-mode:lr-tb;text-anchor:start;fill:#000000;fill-opacity:1;stroke:none;stroke-width:1px;stroke-linecap:butt;stroke-linejoin:miter;stroke-opacity:1;font-family:Century Gothic"/>
</svg>
