<?xml version="1.0" encoding="UTF-8" standalone="no"?>
<!DOCTYPE svg PUBLIC "-//W3C//DTD SVG 1.1 Tiny//EN" "http://www.w3.org/Graphics/SVG/1.1/DTD/svg11-tiny.dtd">
<svg xmlns="http://www.w3.org/2000/svg" baseProfile="tiny" height="50" version="1.0" viewBox="0 0 50 50" width="50">
<path d="M 32.506378,0.33393188 C 33.826877,0.33712803 35.147698,0.32748923 36.467993,0.33884217 C 37.356126,0.38316623 38.099675,1.1962262 38.05775,2.0656757 C 38.054462,3.4821063 38.064356,4.898853 38.052746,6.3150839 C 38.007569,7.1864783 37.178893,7.9160168 36.292745,7.8748809 C 34.986354,7.8716863 33.679644,7.8813216 32.373457,7.8699707 C 31.485325,7.8256465 30.741775,7.0125866 30.7837,6.143137 C 30.786988,4.7267064 30.777095,3.3099596 30.788706,1.8937287 C 30.839459,1.0315138 31.627421,0.31837063 32.506378,0.33393188 z" style="fill:#ffffff;fill-opacity:1;stroke:none;stroke-width:2.29099989;stroke-linejoin:round;stroke-miterlimit:4;stroke-dasharray:none;stroke-opacity:1"/>
<path d="M 14.074676,3.7089852 C 21.573053,3.7297319 29.074044,3.6673194 36.570773,3.7404979 C 39.894658,3.9840105 42.437345,7.2531838 42.073909,10.520676 C 42.068622,21.596224 42.084489,32.672036 42.065959,43.747417 C 41.993368,47.139728 38.720213,49.903256 35.370176,49.557278 C 28.062439,49.536545 20.752089,49.598926 13.446001,49.525766 C 10.122116,49.282253 7.5794302,46.01308 7.9428666,42.745588 C 7.9481524,31.67004 7.932286,20.594227 7.9508154,9.5188459 C 8.0530998,6.3312472 10.881067,3.6475793 14.074676,3.7089852 z" style="fill:#ffffff;fill-opacity:1;stroke:none;stroke-width:2.29099989;stroke-linejoin:round;stroke-miterlimit:4;stroke-dasharray:none;stroke-opacity:1"/>
<path d="M 14.44264,6.1201296 C 21.689796,6.1341537 28.93836,6.0920286 36.184633,6.1412847 C 38.567675,6.3063777 40.176141,8.707976 39.87554,10.981948 C 39.861481,21.875453 39.90369,32.770367 39.854386,43.662988 C 39.689291,46.04603 37.287693,47.654495 35.013721,47.353894 C 28.01632,47.339876 21.017511,47.381987 14.020993,47.332738 C 11.637951,47.167646 10.029485,44.766048 10.330086,42.492075 C 10.344145,31.598571 10.301938,20.703657 10.351241,9.811036 C 10.522238,7.7578317 12.382147,6.0803515 14.44264,6.1201296 z" style="fill:#67a9c4;fill-opacity:1;stroke:#0d6796;stroke-width:2;stroke-miterlimit:4;stroke-dasharray:none;stroke-opacity:1"/>
<path d="M 16.253714,10.171418 C 22.190576,10.178119 28.128111,10.158001 34.064553,10.181504 C 35.224589,10.260977 35.975855,11.438379 35.824253,12.535175 C 35.817559,17.530234 35.837661,22.525964 35.814167,27.520602 C 35.734694,28.680637 34.557292,29.431903 33.460496,29.280301 C 27.657976,29.273601 21.854785,29.293716 16.052687,29.270214 C 14.892651,29.190742 14.141386,28.01334 14.292988,26.916544 C 14.299682,21.921485 14.27958,16.925755 14.303074,11.931118 C 14.384599,10.952219 15.271342,10.152453 16.253714,10.171418 z" style="fill:#ffffff;fill-opacity:1;fill-rule:evenodd;stroke:none;stroke-width:1px;stroke-linecap:butt;stroke-linejoin:miter;stroke-opacity:1"/>
<rect height="4.8126855" ry="1.2055506" style="fill:#0d6796;fill-opacity:1;fill-rule:evenodd;stroke:none;stroke-width:1px;stroke-linecap:butt;stroke-linejoin:miter;stroke-opacity:1" width="4.7299781" x="32.007034" y="1.5487015"/>
<path d="M 23.194437,32.347729 C 24.420988,32.347729 25.647539,32.347729 26.87409,32.347729 C 27.203955,32.33778 27.15327,32.876863 26.832072,32.814617 C 25.619527,32.814617 24.406982,32.814617 23.194437,32.814617 C 22.889967,32.821606 22.889966,32.340739 23.194437,32.347729 z" style="fill:none;fill-opacity:1;stroke:#0d6796;stroke-width:2.29068804;stroke-linejoin:round;stroke-miterlimit:4;stroke-dasharray:none;stroke-opacity:1"/>
<path d="M 15.781015,32.347729 C 17.007566,32.347729 18.234118,32.347729 19.460669,32.347729 C 19.790536,32.33778 19.739847,32.876866 19.418648,32.814617 C 18.206104,32.814617 16.99356,32.814617 15.781015,32.814617 C 15.476545,32.821606 15.476545,32.340739 15.781015,32.347729 z" style="fill:none;fill-opacity:1;stroke:#0d6796;stroke-width:2.29099989;stroke-linejoin:round;stroke-miterlimit:4;stroke-dasharray:none;stroke-opacity:1"/>
<path d="M 30.695894,32.347729 C 31.922446,32.347729 33.148998,32.347729 34.375549,32.347729 C 34.705413,32.337782 34.654725,32.876863 34.33353,32.814617 C 33.120985,32.814617 31.908439,32.814617 30.695894,32.814617 C 30.391424,32.821606 30.391424,32.340739 30.695894,32.347729 z" style="fill:none;fill-opacity:1;stroke:#0d6796;stroke-width:2.29068804;stroke-linejoin:round;stroke-miterlimit:4;stroke-dasharray:none;stroke-opacity:1"/>
<path d="M 23.150053,35.904198 C 24.376604,35.904198 25.603155,35.904198 26.829706,35.904198 C 27.159571,35.894249 27.108886,36.433332 26.787688,36.371085 C 25.575143,36.371086 24.362598,36.371086 23.150053,36.371086 C 22.845583,36.378075 22.845582,35.897208 23.150053,35.904198 z" style="fill:none;fill-opacity:1;stroke:#0d6796;stroke-width:2.29068804;stroke-linejoin:round;stroke-miterlimit:4;stroke-dasharray:none;stroke-opacity:1"/>
<path d="M 15.736631,35.904198 C 16.963182,35.904198 18.189734,35.904198 19.416285,35.904198 C 19.74615,35.894249 19.695464,36.433332 19.374267,36.371085 C 18.161722,36.371086 16.949177,36.371086 15.736631,36.371086 C 15.432161,36.378075 15.432161,35.897208 15.736631,35.904198 z" style="fill:none;fill-opacity:1;stroke:#0d6796;stroke-width:2.29068804;stroke-linejoin:round;stroke-miterlimit:4;stroke-dasharray:none;stroke-opacity:1"/>
<path d="M 30.651512,35.904198 C 31.878063,35.904198 33.104614,35.904198 34.331165,35.904198 C 34.661031,35.894249 34.610345,36.433332 34.289148,36.371085 C 33.076602,36.371086 31.864057,36.371086 30.651512,36.371086 C 30.347042,36.378075 30.347042,35.897208 30.651512,35.904198 z" style="fill:none;fill-opacity:1;stroke:#0d6796;stroke-width:2.29068804;stroke-linejoin:round;stroke-miterlimit:4;stroke-dasharray:none;stroke-opacity:1"/>
<path d="M 23.093872,39.443523 C 24.320423,39.443523 25.546974,39.443523 26.773525,39.443523 C 27.103391,39.433574 27.052705,39.972658 26.731508,39.910411 C 25.518962,39.910411 24.306417,39.910412 23.093872,39.910412 C 22.789402,39.9174 22.789401,39.436534 23.093872,39.443523 z" style="fill:none;fill-opacity:1;stroke:#0d6796;stroke-width:2.29068804;stroke-linejoin:round;stroke-miterlimit:4;stroke-dasharray:none;stroke-opacity:1"/>
<path d="M 15.68045,39.443523 C 16.907001,39.443523 18.133553,39.443523 19.360104,39.443523 C 19.689969,39.433574 19.639283,39.972658 19.318086,39.910411 C 18.105541,39.910411 16.892996,39.910412 15.68045,39.910412 C 15.37598,39.9174 15.37598,39.436534 15.68045,39.443523 z" style="fill:none;fill-opacity:1;stroke:#0d6796;stroke-width:2.29068804;stroke-linejoin:round;stroke-miterlimit:4;stroke-dasharray:none;stroke-opacity:1"/>
<path d="M 30.595329,39.443523 C 31.82188,39.443523 33.048431,39.443523 34.274982,39.443523 C 34.604848,39.433574 34.554162,39.972658 34.232965,39.910411 C 33.02042,39.910411 31.807874,39.910412 30.595329,39.910412 C 30.290859,39.9174 30.290859,39.436534 30.595329,39.443523 z" style="fill:none;fill-opacity:1;stroke:#0d6796;stroke-width:2.29068804;stroke-linejoin:round;stroke-miterlimit:4;stroke-dasharray:none;stroke-opacity:1"/>
<path d="M 23.093872,42.982849 C 24.320423,42.982849 25.546974,42.982849 26.773525,42.982849 C 27.103391,42.9729 27.052705,43.511984 26.731508,43.449737 C 25.518962,43.449737 24.306417,43.449737 23.093872,43.449738 C 22.789402,43.456726 22.789401,42.97586 23.093872,42.982849 z" style="fill:none;fill-opacity:1;stroke:#0d6796;stroke-width:2.29068804;stroke-linejoin:round;stroke-miterlimit:4;stroke-dasharray:none;stroke-opacity:1"/>
</svg>
