<?xml version="1.0" encoding="UTF-8" standalone="no"?>
<!DOCTYPE svg PUBLIC "-//W3C//DTD SVG 1.1 Tiny//EN" "http://www.w3.org/Graphics/SVG/1.1/DTD/svg11-tiny.dtd">
<svg xmlns="http://www.w3.org/2000/svg" baseProfile="tiny" height="400" version="1.0" viewBox="0 0 400 400" width="400">
<defs/>
<path d="M 263.19256,135.80059 C 263.32292,145.1413 257.3718,154.2039 248.66762,157.88374 C 240.24179,161.65368 229.70561,160.00164 222.88784,153.8271 C 215.97006,147.86393 213.08035,137.89225 215.65378,129.20536 C 218.12799,120.15517 226.42151,112.98775 235.878,111.90169 C 244.79388,110.66252 254.1376,114.90549 259.05707,122.33072 C 261.7549,126.28254 263.20692,131.03716 263.19256,135.80059 z " style="fill:none;fill-opacity:1;fill-rule:evenodd;stroke:#2fdbcb;stroke-width:2.6864264;stroke-miterlimit:4;stroke-dasharray:none;stroke-opacity:1"/>
<path d="M 269.30216,177.409 C 269.83266,200.63403 250.92423,222.31814 227.61348,224.83021 C 204.80107,228.24134 181.35794,212.59108 175.56241,190.49555 C 168.84982,168.53313 180.61736,142.96263 201.86325,133.82698 C 222.32756,124.09225 248.93837,131.72288 261.14759,150.68153 C 266.46733,158.52288 269.3305,167.95716 269.30216,177.409 z " style="fill:none;fill-opacity:1;fill-rule:evenodd;stroke:#e3bbcd;stroke-width:1.81813765;stroke-opacity:1"/>
<path d="M 231.90991,161.88675 C 220.8204,161.88675 211.84263,170.92552 211.84261,182.09033 C 211.84261,193.25517 220.82042,202.29391 231.90991,202.29391 C 242.99943,202.29391 251.97723,193.25517 251.97723,182.09033 C 251.97723,170.92552 242.99943,161.88675 231.90991,161.88675 z M 223.39651,169.06654 C 224.42017,169.07587 225.43875,169.47703 226.21589,170.291 L 231.9652,176.30198 L 237.54866,170.45796 C 238.3258,169.644 239.34438,169.18719 240.36805,169.17785 C 241.39169,169.16852 242.45105,169.60265 243.24269,170.40231 C 244.82596,172.00166 244.79696,174.56273 243.24269,176.19066 L 237.54866,182.14598 L 243.13213,187.99 C 244.68636,189.61795 244.66013,192.23469 243.07685,193.83402 C 241.4936,195.43335 238.99234,195.40631 237.43811,193.77837 L 231.9652,188.04565 L 226.38173,193.94533 C 224.82749,195.57328 222.271,195.60032 220.6877,194.00098 C 219.10443,192.40166 219.07816,189.78492 220.63242,188.15697 L 226.32645,182.20164 L 220.52186,176.07935 C 218.96761,174.4514 218.99387,171.83469 220.57714,170.23534 C 221.36879,169.43568 222.37286,169.05721 223.39651,169.06654 z " style="fill:#3353c5;fill-opacity:1;fill-rule:evenodd;stroke:none;stroke-opacity:1"/>
<path d="M 143.01865,310.38189 C 126.6648,310.38189 113.38549,323.32902 113.38549,339.25725 C 113.38549,355.1855 126.6648,368.09025 143.01865,368.09025 C 159.37253,368.09025 172.65183,355.18552 172.65183,339.25725 C 172.65183,323.32902 159.37253,310.38189 143.01865,310.38189 z M 130.46513,320.64304 C 131.97577,320.65662 133.50261,321.26164 134.64963,322.4239 L 143.10405,330.98899 L 151.34499,322.59351 C 152.49202,321.43125 154.01885,320.86863 155.52948,320.85505 C 157.04014,320.84145 158.54597,321.40966 159.714,322.5511 C 162.05009,324.83396 162.09346,328.53726 159.79941,330.86178 L 151.38768,339.38448 L 159.58591,347.69516 C 161.87997,350.01966 161.83658,353.72295 159.5005,356.00582 C 157.16442,358.2887 153.46824,358.24554 151.17419,355.92102 L 143.10405,347.73756 L 134.82043,356.13303 C 132.52638,358.45754 128.83018,358.50071 126.49411,356.21783 C 124.15802,353.93496 124.11466,350.23167 126.40871,347.90717 L 134.82043,339.38448 L 126.19522,330.64977 C 123.90115,328.32525 123.94454,324.62195 126.28061,322.33909 C 127.44866,321.19765 128.95448,320.62944 130.46513,320.64304 z " style="fill:#fae215;fill-opacity:1;fill-rule:evenodd;stroke:none;stroke-opacity:1"/>
<path d="M 394.86837,191.02676 C 394.99715,199.71459 388.11622,207.11341 380.43791,208.09664 C 372.27589,209.57741 363.22998,203.95521 361.25855,194.9267 C 359.35082,187.22034 363.55443,178.82079 370.09582,175.64712 C 378.11097,171.28989 389.06907,174.64859 393.18973,183.54001 C 394.28712,185.84066 394.87283,188.43057 394.86837,191.02676 z " style="fill:none;fill-opacity:1;fill-rule:evenodd;stroke:#d63440;stroke-width:5.83549213;stroke-miterlimit:4;stroke-dasharray:none;stroke-opacity:1"/>
<path d="M 365.70887,141.64174 C 365.89098,154.0502 357.57779,166.08919 345.41881,170.9776 C 333.64866,175.9857 318.93054,173.79107 309.40673,165.58865 C 299.74319,157.66701 295.70651,144.42036 299.30136,132.88045 C 302.75761,120.85793 314.34295,111.33652 327.55281,109.89377 C 340.00752,108.24762 353.05989,113.8841 359.93197,123.74799 C 363.70059,128.99768 365.72895,135.31386 365.70887,141.64174 z " style="fill:none;fill-opacity:1;fill-rule:evenodd;stroke:#55db2f;stroke-width:3.65955687;stroke-miterlimit:4;stroke-dasharray:none;stroke-opacity:1"/>
<path d="M 128.1875 249.46875 C 122.30904 249.67403 117.25382 257.16886 121.28125 262.75 C 125.60698 267.51414 130.07277 272.16157 134.5625 276.78125 C 130.39098 281.10463 126.21027 285.40405 122.0625 289.75 C 116.4736 296.06571 124.25946 306.73752 131.84375 302.96875 C 136.69584 299.8601 140.13141 294.87939 144.34375 290.9375 C 144.99436 290.25202 145.65863 289.58886 146.3125 288.90625 C 146.87409 289.49321 147.44086 290.06713 148 290.65625 C 152.21237 294.59813 155.64794 299.5476 160.5 302.65625 C 168.08429 306.42505 175.87012 295.78445 170.28125 289.46875 C 166.22175 285.21529 162.14493 280.98166 158.0625 276.75 C 162.45337 272.22976 166.83087 267.69173 171.0625 263.03125 C 176.01933 256.16213 167.18865 246.4181 160.03125 250.90625 C 159.28736 251.31307 158.62264 251.8245 158.03125 252.4375 C 154.12914 256.49187 150.22482 260.54908 146.3125 264.59375 C 142.3045 260.45028 138.30998 256.30972 134.3125 252.15625 C 133.72108 251.54326 133.02514 251.03184 132.28125 250.625 C 130.93924 249.78347 129.54407 249.42138 128.1875 249.46875 z " style="fill:#dd39b4;fill-opacity:1;fill-rule:evenodd;stroke:none;stroke-opacity:1"/>
<path d="M 235.85067,263.30281 C 235.96481,272.07714 230.694,280.60001 222.93524,284.15754 C 215.34412,287.83424 205.77847,286.38579 199.53338,280.59982 C 193.27612,275.07822 190.53064,265.79575 192.6398,257.58616 C 194.6747,248.94018 202.02136,241.9488 210.55689,240.69076 C 218.43113,239.34037 226.81323,242.9401 231.49204,249.61638 C 234.32129,253.53713 235.86734,258.41191 235.85067,263.30281 z " style="fill:none;fill-opacity:1;fill-rule:evenodd;stroke:#aa9073;stroke-width:7.23347092;stroke-miterlimit:4;stroke-dasharray:none;stroke-opacity:1"/>
<path d="M 223.92557,227.56525 C 224.47176,252.88635 204.60237,276.63517 179.68945,280.03935 C 155.76198,284.26304 130.56578,268.94512 122.71858,245.81699 C 114.00182,222.83901 123.62744,194.65128 144.67663,182.16537 C 165.18565,168.94797 194.46586,173.30012 210.37403,191.87246 C 219.07324,201.53858 223.98752,214.50751 223.92557,227.56525 z " style="fill:none;fill-opacity:1;fill-rule:evenodd;stroke:#ebe75d;stroke-width:2.68209958;stroke-miterlimit:4;stroke-dasharray:none;stroke-opacity:1"/>
<path d="M 238.63244,119.27662 C 238.88891,132.04687 229.16362,144.12334 216.56668,146.50237 C 204.70501,149.1601 191.69194,142.8093 186.38041,131.92769 C 180.4548,120.73284 183.50169,105.76405 193.41393,97.832597 C 202.81033,89.738875 217.75601,89.376355 227.53382,97.00755 C 234.47149,102.1627 238.70002,110.64423 238.63244,119.27662 z " style="fill:none;fill-opacity:1;fill-rule:evenodd;stroke:#afff00;stroke-width:10.16142941;stroke-miterlimit:4;stroke-dasharray:none;stroke-opacity:1"/>
<path d="M 292.32173,188.8614 C 292.39101,194.917 288.95702,200.83601 283.7113,203.69749 C 278.40533,206.72257 271.44971,206.33778 266.50121,202.73761 C 261.73417,199.41287 258.96106,193.41975 259.45877,187.56331 C 259.84914,181.4096 263.86335,175.68374 269.46018,173.3148 C 274.90623,170.89517 281.6078,171.84993 286.18191,175.71385 C 290.04116,178.86667 292.35711,183.82525 292.32173,188.8614 z " style="fill:none;fill-opacity:1;fill-rule:evenodd;stroke:#a32397;stroke-width:7.585114;stroke-miterlimit:4;stroke-dasharray:none;stroke-opacity:1"/>
<path d="M 282.07446,121.57537 C 266.54646,121.57537 253.97008,134.55661 253.97008,150.52663 C 253.97008,166.49666 266.54648,179.4409 282.07446,179.4409 C 297.60244,179.4409 310.21404,166.49666 310.21404,150.52663 C 310.21404,134.55661 297.60244,121.57537 282.07446,121.57537 z M 270.17059,131.85435 C 271.60497,131.86801 273.02594,132.46381 274.11507,133.62916 L 282.14489,142.24426 L 289.99862,133.85101 C 291.08775,132.68567 292.50874,132.08985 293.94309,132.07621 C 295.37747,132.06258 296.81373,132.63261 297.92279,133.77705 C 300.14089,136.06592 300.17147,139.76571 297.99323,142.09638 L 289.99862,150.63754 L 297.81713,158.99386 C 299.9954,161.32451 299.96479,165.02432 297.74669,167.31318 C 295.52858,169.60203 291.96557,169.56989 289.78731,167.23923 L 282.14489,159.0678 L 274.29116,167.46107 C 272.1129,169.79173 268.58509,169.82389 266.367,167.53502 C 264.14888,165.24616 264.11831,161.50938 266.29656,159.17873 L 274.29116,150.63754 L 266.12046,141.9115 C 263.94222,139.58084 263.97281,135.84406 266.1909,133.5552 C 267.29997,132.41078 268.73622,131.84073 270.17059,131.85435 z " style="fill:#e80a36;fill-opacity:1;fill-rule:evenodd;stroke:none;stroke-opacity:1"/>
<path d="M 348.41189,186.90152 C 348.70885,202.41858 337.208,217.14764 322.07633,220.43478 C 307.55584,224.09162 291.3363,216.627 284.475,203.30488 C 276.84755,189.62032 280.16034,170.99263 292.1252,160.87954 C 303.44758,150.57973 321.82765,149.6821 334.08872,158.83667 C 343.01178,165.17743 348.49927,175.92534 348.41189,186.90152 z " style="fill:none;fill-opacity:1;fill-rule:evenodd;stroke:#2c82b8;stroke-width:2.96504951;stroke-miterlimit:4;stroke-dasharray:none;stroke-opacity:1"/>
<path d="M 251.65625 66.375 C 245.7823 66.352762 240.3519 72.973135 244.40625 79.0625 C 248.72348 83.600005 253.13669 88.057478 257.5625 92.5 C 253.22571 96.85961 248.92567 101.24161 244.6875 105.6875 C 238.4296 114.72915 253.60187 123.54361 259.125 114.375 C 262.48254 110.96363 265.85805 107.56876 269.25 104.1875 C 272.54751 107.47531 275.82932 110.777 279.09375 114.09375 C 284.61689 123.26235 299.78918 114.44791 293.53125 105.40625 C 289.38748 101.05937 285.1764 96.794887 280.9375 92.53125 C 285.27391 88.176215 289.58131 83.790834 293.8125 79.34375 C 299.32491 71.351448 287.61671 62.095123 280.875 69.15625 C 277.02145 73.069538 273.14266 76.964683 269.25 80.84375 C 265.26479 76.872916 261.28868 72.881079 257.34375 68.875 C 255.61974 67.125286 253.61423 66.382413 251.65625 66.375 z " style="fill:#f6a709;fill-opacity:1;fill-rule:evenodd;stroke:none;stroke-opacity:1"/>
<path d="M 239.23435,19.819961 C 239.31371,26.474318 235.428,32.972252 229.52778,36.043731 C 223.6263,39.258018 215.94829,38.747076 210.5293,34.769412 C 205.23567,31.047773 202.2501,24.375808 202.96867,17.945773 C 203.57389,11.205449 208.25547,5.0449573 214.59474,2.6790023 C 220.70232,0.2755228 228.05705,1.5823353 232.95371,5.9587163 C 236.92221,9.3913583 239.26872,14.570797 239.23435,19.819961 z " style="fill:none;fill-opacity:1;fill-rule:evenodd;stroke:#e293d2;stroke-width:3.27902079;stroke-miterlimit:4;stroke-dasharray:none;stroke-opacity:1"/>
<path d="M 47.005719,193.92456 C 23.139501,193.92456 3.7793147,213.88104 3.7793437,238.48234 C 3.7793437,263.08363 23.139501,283.04014 47.005719,283.04014 C 70.871963,283.04014 90.232085,263.08367 90.232085,238.48234 C 90.232085,213.88104 70.871991,193.92456 47.005719,193.92456 z M 27.85257,209.78336 C 30.325314,209.55616 32.867125,210.46792 34.749451,212.48654 L 47.093573,225.73223 L 59.17412,212.80193 C 60.847308,211.00759 63.032276,210.07415 65.236382,210.05365 C 67.440465,210.03318 69.637934,210.9038 71.342547,212.66674 C 74.751731,216.19266 74.820701,221.91835 71.474312,225.50697 L 59.17412,238.70762 L 71.166825,251.54783 C 74.513204,255.13645 74.488144,260.86212 71.078959,264.38804 C 67.669776,267.91395 62.213009,267.84153 58.866618,264.25287 L 47.093573,251.63792 L 35.056979,264.56824 C 31.71059,268.1569 26.253837,268.22931 22.844639,264.70341 C 19.435428,261.1775 19.410397,255.45182 22.756787,251.8632 L 35.013038,238.70762 L 22.449259,225.23668 C 19.102884,221.648 19.171868,215.92237 22.581053,212.39644 C 24.07256,210.85387 25.929316,209.96005 27.85257,209.78336 z " style="fill:#efcddd;fill-opacity:1;fill-rule:evenodd;stroke:none;stroke-opacity:1"/>
<path d="M 116.96409,297.11148 C 117.10215,307.02721 110.79969,316.64769 101.58164,320.55407 C 92.658363,324.5561 81.500146,322.80235 74.279877,316.24771 C 66.953684,309.91745 63.893365,299.3319 66.618723,290.11024 C 69.239004,280.50293 78.022164,272.89427 88.036932,271.74135 C 97.479183,270.42589 107.37455,274.93007 112.58445,282.8124 C 115.44155,287.00748 116.9793,292.05481 116.96409,297.11148 z " style="fill:none;fill-opacity:1;fill-rule:evenodd;stroke:#2fdbcb;stroke-width:2.84841347;stroke-miterlimit:4;stroke-dasharray:none;stroke-opacity:1"/>
<path d="M 193.23405,314.34327 C 193.37211,324.25899 187.06965,333.87948 177.8516,337.78585 C 168.92833,341.78788 157.7701,340.03413 150.54984,333.47948 C 143.22364,327.14922 140.16333,316.56368 142.88868,307.34202 C 145.50896,297.73471 154.29213,290.12605 164.30689,288.97313 C 173.74914,287.65767 183.64452,292.16184 188.85442,300.04417 C 191.71151,304.23927 193.24927,309.28658 193.23405,314.34327 z " style="fill:none;fill-opacity:1;fill-rule:evenodd;stroke:#55db2f;stroke-width:2.84841347;stroke-miterlimit:4;stroke-dasharray:none;stroke-opacity:1"/>
<path d="M 215.37954,377.60842 C 215.44882,383.66402 212.01483,389.58303 206.76911,392.44451 C 201.46314,395.46959 194.50752,395.0848 189.55902,391.48463 C 184.79198,388.15989 182.01887,382.16677 182.51658,376.31033 C 182.90695,370.15662 186.92116,364.43076 192.51799,362.06182 C 197.96404,359.64219 204.66561,360.59695 209.23972,364.46087 C 213.09897,367.61369 215.41492,372.57227 215.37954,377.60842 z " style="fill:none;fill-opacity:1;fill-rule:evenodd;stroke:#e41204;stroke-width:7.585114;stroke-miterlimit:4;stroke-dasharray:none;stroke-opacity:1"/>
<path d="M 212.87527,327.51583 C 212.94454,333.57143 209.51056,339.49044 204.26483,342.35192 C 198.95888,345.377 192.00326,344.99219 187.05475,341.39202 C 182.2877,338.0673 179.51461,332.07417 180.01231,326.21774 C 180.40269,320.06403 184.4169,314.33817 190.01372,311.96921 C 195.45976,309.5496 202.16134,310.50436 206.73545,314.36828 C 210.5947,317.52109 212.91066,322.47968 212.87527,327.51583 z " style="fill:none;fill-opacity:1;fill-rule:evenodd;stroke:#ff9e0a;stroke-width:14.50479317;stroke-miterlimit:4;stroke-dasharray:none;stroke-opacity:1"/>
<path d="M 160.78747,252.31221 C 161.10199,268.78449 148.92214,284.42028 132.89713,287.90978 C 117.51938,291.79174 100.34228,283.8676 93.07591,269.72536 C 84.998146,255.19837 88.506513,235.42396 101.17775,224.6883 C 113.16858,213.75443 132.63376,212.80154 145.6187,222.51968 C 155.06855,229.25078 160.88002,240.66033 160.78747,252.31221 z " style="fill:none;fill-opacity:1;fill-rule:evenodd;stroke:#2c82b8;stroke-width:3.14383698;stroke-miterlimit:4;stroke-dasharray:none;stroke-opacity:1"/>
</svg>
