<?xml version="1.0" encoding="UTF-8" standalone="no"?>
<!DOCTYPE svg PUBLIC "-//W3C//DTD SVG 1.1 Tiny//EN" "http://www.w3.org/Graphics/SVG/1.1/DTD/svg11-tiny.dtd">
<svg xmlns="http://www.w3.org/2000/svg" baseProfile="tiny" height="100" version="1.0" viewBox="0 0 150 100" width="150">
<g transform="translate(-97.913508,-8.1696565e-2)">
<path d="M 162.01209,8.0591459 C 169.65231,8.0859343 177.29517,8.0047359 184.93368,8.101268 C 192.00317,8.4798923 198.09773,14.733233 198.29535,21.810047 C 198.29586,26.988861 198.3916,34.564743 198.23957,39.740031 C 183.57393,39.560141 162.84077,39.752334 147.53166,39.570832 C 147.53116,34.392018 147.43542,26.247093 147.58745,21.071804 C 148.18454,13.840077 154.7537,7.914067 162.01209,8.0591459 z" style="fill:none;fill-opacity:1;fill-rule:evenodd;stroke:#000000;stroke-width:8.07199955;stroke-miterlimit:4;stroke-dasharray:none;stroke-opacity:1"/>
<path d="M 208.28512,39.893465 C 208.26403,54.403206 208.47864,70.681146 208.40465,85.189479 C 208.15163,89.144274 204.34473,91.599659 200.85318,91.069174 C 181.57395,91.046787 162.29261,91.114003 143.01471,91.035474 C 139.28819,90.766965 136.97454,86.726851 137.4744,83.021414 C 137.49549,68.511673 137.43217,54.320768 137.50616,39.812435 C 145.9424,39.701243 198.84821,39.944297 208.28512,39.893465 z" style="fill:none;fill-opacity:1;fill-rule:evenodd;stroke:#000000;stroke-width:10.01200008;stroke-linejoin:miter;stroke-miterlimit:4;stroke-dasharray:none;stroke-opacity:1"/>
<path d="M 172.9135,51.042824 C 169.1933,51.042824 166.17364,53.895542 166.17364,57.410099 C 166.17364,59.688623 167.46703,61.687548 169.37338,62.812635 C 169.10715,68.014443 167.46715,72.375999 167.46715,77.733925 C 170.41971,77.733925 174.79461,77.733916 177.74715,77.733925 C 177.74715,72.441309 176.31091,68.124406 176.04516,63.005583 C 178.1842,61.938071 179.65338,59.853079 179.65338,57.410099 C 179.65338,53.895542 176.63372,51.04282 172.9135,51.042824 z" style="fill:#000000;fill-opacity:1;fill-rule:evenodd;stroke:none;stroke-width:3.16000009;stroke-linejoin:miter;stroke-miterlimit:4;stroke-dasharray:none;stroke-opacity:1"/>
</g>
</svg>
