<?xml version="1.0" encoding="UTF-8" standalone="no"?>
<!DOCTYPE svg PUBLIC "-//W3C//DTD SVG 1.1 Tiny//EN" "http://www.w3.org/Graphics/SVG/1.1/DTD/svg11-tiny.dtd">
<svg xmlns="http://www.w3.org/2000/svg" xmlns:xlink="http://www.w3.org/1999/xlink" baseProfile="tiny" height="100" version="1.0" viewBox="0 0 150 100" width="150">
<path d="M 63.84375,2.34375 L 68.0625,10.25 C 64.339791,11.057919 61.632681,12.497336 60.75,14.1875 C 51.329609,14.528661 41.830044,15.193901 31.96875,16.25 C 27.375368,17.324382 24.007935,21.244086 22.59375,25.71875 C 18.931595,46.009662 18.980096,65.447724 22.15625,85.4375 C 23.922232,90.457576 26.624344,94.083569 31.875,95.34375 C 59.455215,98.693686 88.167848,98.571691 117.65625,95.25 C 123.21079,94.51153 127.05588,91.03134 127.875,85.4375 C 130.90522,65.875787 130.99907,46.03253 127.96875,26.03125 C 126.78614,21.011172 123.63612,16.70807 117.65625,16.03125 C 108.14232,15.143517 98.96454,14.512567 89.8125,14.1875 C 88.922189,12.482717 86.178312,11.05425 82.40625,10.25 L 87.4375,2.34375 L 79.53125,2.34375 L 75.0625,9.34375 L 71.3125,2.34375 L 63.84375,2.34375 z M 93.5,29.59375 C 97.652027,31.244292 99.22415,33.130242 100.1875,36.28125 C 103.71374,52.574184 103.4993,58.870663 100.28125,75.1875 C 99.7125,77.873602 96.88159,80.232481 93.59375,81.78125 C 74.490624,88.0934 56.090597,87.946913 36.65625,81.90625 C 33.152749,80.422062 31.098001,78.333832 30.15625,75.09375 C 26.670967,58.616757 26.646013,52.373841 30.46875,36.40625 C 31.592882,33.499281 34.348273,30.94512 36.96875,29.59375 C 55.503312,23.23769 74.92592,24.129632 93.5,29.59375 z M 115.578,29.4375 C 120.13529,29.4375 123.82933,33.13021 123.828,37.6875 C 123.82933,42.244792 120.13529,45.9375 115.578,45.9375 C 111.02071,45.937499 107.32667,42.24479 107.328,37.6875 C 107.32667,33.130212 111.02071,29.4375 115.578,29.4375 z M 115.578,51.15625 C 120.13529,51.156254 123.82933,54.84896 123.828,59.40625 C 123.82933,63.963537 120.13529,67.65625 115.578,67.65625 C 111.02071,67.656254 107.32667,63.963537 107.328,59.40625 C 107.32667,54.84896 111.02071,51.15625 115.578,51.15625 z" style="fill:#000000;fill-opacity:1;stroke:none;stroke-width:2;stroke-linecap:round;stroke-linejoin:round;stroke-miterlimit:4;stroke-dasharray:none;stroke-opacity:1"/>
</svg>
