<?xml version="1.0" encoding="UTF-8" standalone="no"?>
<!DOCTYPE svg PUBLIC "-//W3C//DTD SVG 1.1 Tiny//EN" "http://www.w3.org/Graphics/SVG/1.1/DTD/svg11-tiny.dtd">
<svg xmlns="http://www.w3.org/2000/svg" baseProfile="tiny" height="100" version="1.0" viewBox="0 0 200 100" width="200">
<defs/>
<path d="M 108.56987,53.56726 C 109.46616,54.517246 105.92601,57.140604 105.17386,56.989119 C 101.87454,56.324641 101.93745,53.097204 103.44409,51.387138 C 106.63579,47.764459 113.77134,48.122447 117.88254,50.622321 C 124.67194,54.750691 123.65809,62.370539 117.93462,66.746041 C 109.58841,73.126591 95.404219,71.942994 87.384102,65.901436 C 76.532791,57.727123 78.836787,44.445611 89.918423,37.050926 C 104.17939,27.534705 126.71156,29.750552 139.08948,39.998067 C 154.45743,52.720969 150.63087,72.445537 133.41973,83.159099 C 112.61916,96.106991 80.808779,92.714655 63.694815,77.769295 C 43.441218,60.082146 48.964008,33.309574 72.908818,19.021996 C 83.161799,12.904161 96.048975,9.3452493 109.26613,8.8188996" style="fill:none;fill-rule:evenodd;stroke:#000000;stroke-width:12.47494221;stroke-linecap:butt;stroke-linejoin:miter;stroke-miterlimit:4;stroke-dasharray:none;stroke-opacity:1"/>
</svg>
