<?xml version="1.0" encoding="UTF-8" standalone="no"?>
<!DOCTYPE svg PUBLIC "-//W3C//DTD SVG 1.1 Tiny//EN" "http://www.w3.org/Graphics/SVG/1.1/DTD/svg11-tiny.dtd">
<svg xmlns="http://www.w3.org/2000/svg" baseProfile="tiny" height="100" version="1.0" viewBox="0 0 150 100" width="150">
<path d="M 83.569871,53.56726 C 84.466158,54.517246 80.926008,57.140604 80.173857,56.989119 C 76.874535,56.324641 76.937451,53.097204 78.444093,51.387138 C 81.635785,47.764459 88.771334,48.122447 92.882543,50.622321 C 99.671942,54.750691 98.658092,62.370539 92.934618,66.746041 C 84.588408,73.126591 70.404217,71.942994 62.3841,65.901436 C 51.532789,57.727123 53.836785,44.445611 64.918421,37.050926 C 79.179389,27.534705 101.71156,29.750552 114.08948,39.998067 C 129.45743,52.720969 125.63087,72.445537 108.41973,83.159099 C 87.619157,96.106991 55.808777,92.714655 38.694813,77.769295 C 18.441216,60.082146 23.964006,33.309574 47.908816,19.021996 C 58.161797,12.904161 71.048973,9.3452495 84.266132,8.8188998" style="fill:none;fill-rule:evenodd;stroke:#000000;stroke-width:12.47494221;stroke-linecap:butt;stroke-linejoin:miter;stroke-miterlimit:4;stroke-dasharray:none;stroke-opacity:1"/>
</svg>
