<?xml version="1.0" encoding="UTF-8" standalone="no"?>
<!DOCTYPE svg PUBLIC "-//W3C//DTD SVG 1.1 Tiny//EN" "http://www.w3.org/Graphics/SVG/1.1/DTD/svg11-tiny.dtd">
<svg xmlns="http://www.w3.org/2000/svg" baseProfile="tiny" height="100" version="1.0" viewBox="0 0 150 100" width="150">
<defs/>
<g transform="translate(-24.955849,-0.4077901)">
<path d="M 114.71429,82.858039 C 114.71429,91.012217 108.12648,97.622481 100,97.622481 C 91.873522,97.622481 85.285712,91.012217 85.285712,82.858039 C 85.285712,74.70386 91.873522,68.093593 100,68.093593 C 108.12648,68.093593 114.71429,74.70386 114.71429,82.858039 L 114.71429,82.858039 z" style="fill:#000000;fill-opacity:1;stroke:none;stroke-width:2;stroke-linecap:square;stroke-linejoin:miter;stroke-miterlimit:4;stroke-dasharray:none;stroke-opacity:1"/>
<rect height="56.786324" ry="12.619179" style="fill:#000000;fill-opacity:1;stroke:none;stroke-width:2.02819109;stroke-linecap:square;stroke-linejoin:miter;stroke-miterlimit:4;stroke-dasharray:none;stroke-opacity:1" width="29.428556" x="85.285721" y="3.1930993"/>
<rect height="16.785715" ry="3.3928571" style="opacity:1;fill:#000000;fill-opacity:0.72941176;stroke:none;stroke-width:1;stroke-linecap:square;stroke-linejoin:round;stroke-miterlimit:4;stroke-dasharray:none;stroke-opacity:1" transform="matrix(0.8902315,-0.4555084,0.4555084,0.8902315,0,0)" width="6.7857141" x="41.343552" y="33.152466"/>
<rect height="16.785715" ry="3.3928571" style="opacity:1;fill:#000000;fill-opacity:0.72941176;stroke:none;stroke-width:1;stroke-linecap:square;stroke-linejoin:round;stroke-miterlimit:4;stroke-dasharray:none;stroke-opacity:1" transform="matrix(0.8902315,-0.4555084,0.4555084,0.8902315,0,0)" width="6.7857141" x="25.767897" y="33.40699"/>
<rect height="16.785715" ry="3.3928571" style="opacity:1;fill:#000000;fill-opacity:0.72941176;stroke:none;stroke-width:1;stroke-linecap:square;stroke-linejoin:round;stroke-miterlimit:4;stroke-dasharray:none;stroke-opacity:1" transform="matrix(-0.8902315,-0.4555084,-0.4555084,0.8902315,0,0)" width="6.7857141" x="-136.66444" y="-57.830215"/>
<rect height="16.785715" ry="3.3928571" style="opacity:1;fill:#000000;fill-opacity:0.72941176;stroke:none;stroke-width:1;stroke-linecap:square;stroke-linejoin:round;stroke-miterlimit:4;stroke-dasharray:none;stroke-opacity:1" transform="matrix(-0.8902315,-0.4555084,-0.4555084,0.8902315,0,0)" width="6.7857141" x="-152.2401" y="-57.575691"/>
</g>
</svg>
