<?xml version="1.0" encoding="UTF-8" standalone="no"?>
<!DOCTYPE svg PUBLIC "-//W3C//DTD SVG 1.1 Tiny//EN" "http://www.w3.org/Graphics/SVG/1.1/DTD/svg11-tiny.dtd">
<svg xmlns="http://www.w3.org/2000/svg" baseProfile="tiny" height="100" version="1.0" viewBox="0 0 150 100" width="150">
<defs/>
<path d="M 71.09375 10.78125 C 70.526002 10.770289 70.067563 11.384632 69.96875 11.8125 L 68.0625 22.0625 C 64.539367 22.425677 61.040752 23.060235 57.625 23.96875 L 52.59375 15.40625 C 52.449642 15.166893 51.909515 14.446963 51.40625 14.40625 C 51.334353 14.400434 51.25554 14.412639 51.1875 14.4375 L 45.03125 16.59375 C 44.492559 16.773382 44.262461 17.50123 44.3125 17.9375 L 45.9375 28.21875 C 42.917283 29.628048 39.985757 31.249757 37.1875 33.0625 L 29.625 26.5 C 29.381462 26.293497 28.452109 25.699956 28 26.0625 L 22.84375 30.09375 C 22.390815 30.436246 22.406797 31.196404 22.59375 31.59375 L 27.375 40.6875 C 24.915242 42.966974 22.609531 45.423384 20.5 48.03125 L 11.3125 44.28125 C 11.015783 44.163293 9.937723 43.887102 9.625 44.375 L 6.03125 49.84375 C 5.711343 50.312914 5.945987 51.026873 6.25 51.34375 L 13.59375 58.34375 C 13.324528 58.842648 13.068866 59.337381 12.8125 59.84375 C 11.448239 62.469554 10.267564 65.190974 9.25 67.96875 L 9 68.84375 L 4.4375 68.4375 C 4.4375 72.302279 4.4375 76.16647 4.4375 80.03125 L 5.875 80.75 C 5.415491 83.553695 5.115899 86.378309 5 89.21875 C 10.218749 89.218756 15.4375 89.21875 20.65625 89.21875 C 20.976138 80.179569 23.77074 71.400435 28.40625 63.71875 L 55.0625 81.53125 C 53.896173 83.940153 53.160021 86.555638 52.875 89.21875 C 61.187498 89.218756 69.500004 89.21875 77.8125 89.21875 C 84.76042 89.218756 91.70834 89.21875 98.65625 89.21875 L 119.78125 89.21875 L 98.5 87.96875 C 97.40153 80.919137 92.82916 74.508428 86.5625 71.125 L 96.78125 41.1875 C 103.77636 44.073075 110.1802 48.384161 115.375 53.96875 C 124.43546 63.394691 129.95172 76.151865 130.53125 89.21875 C 135.40625 89.218756 140.28125 89.21875 145.15625 89.21875 C 145.2307 85.223925 145.24927 81.21569 144.40625 77.3125 L 145.40625 76.78125 C 145.40625 72.853967 145.40625 68.927283 145.40625 65 L 140.59375 65.59375 L 140.09375 64.09375 C 138.8499 61.251006 137.42399 58.492593 135.8125 55.84375 L 142.75 48.53125 C 142.96657 48.296614 143.5932 47.373224 143.25 46.90625 L 139.4375 41.59375 C 139.11437 41.126797 138.37361 41.11119 137.96875 41.28125 L 128.40625 45.78125 C 126.34073 43.434614 124.13237 41.216925 121.78125 39.15625 L 126.375 29.5625 C 126.50941 29.272861 126.8446 28.183339 126.375 27.84375 L 121.125 23.96875 C 120.6745 23.623038 119.95843 23.839235 119.625 24.125 L 111.5625 31.65625 L 111.71875 31.78125 C 108.82441 30.022329 105.80762 28.475284 102.6875 27.15625 L 103.75 17.21875 C 103.78053 16.900908 103.74326 15.758001 103.1875 15.59375 L 96.9375 13.6875 C 96.39774 13.51113 95.78203 13.963429 95.5625 14.34375 L 90.84375 23.40625 C 90.28301 23.285483 89.72084 23.168329 89.15625 23.0625 C 86.29825 22.497263 83.40455 22.146228 80.5 21.9375 L 78.625 12.1875 C 78.56132 11.87461 78.20451 10.775946 77.625 10.78125 L 71.09375 10.78125 z M 75.59375 36.9375 C 80.44722 36.965305 85.31129 37.638582 90 38.90625 L 79.78125 68.78125 C 78.45897 68.548325 77.12772 68.436605 75.78125 68.4375 C 69.534424 68.365253 63.441227 71.134898 59.15625 75.625 L 32.53125 57.8125 C 38.905367 49.767762 47.443747 43.437409 57.21875 40.09375 C 63.12278 37.929342 69.353579 36.901751 75.59375 36.9375 z " style="fill:#000000;fill-opacity:1;stroke:none;stroke-width:2;stroke-miterlimit:4;stroke-dasharray:none;stroke-opacity:1"/>
</svg>
