<?xml version="1.0" encoding="UTF-8" standalone="no"?>
<!-- Created with Inkscape (http://www.inkscape.org/) -->
<svg
   xmlns:svg="http://www.w3.org/2000/svg"
   xmlns="http://www.w3.org/2000/svg"
   version="1.0"
   width="200"
   height="100"
   viewBox="0 0 200 100"
   id="svg2">
  <defs
     id="defs7" />
  <path
     d="M 96.10022,10.781322 C 95.532472,10.770361 95.074033,11.384704 94.97522,11.812572 L 93.06897,22.062572 C 89.545837,22.425749 86.047222,23.060307 82.63147,23.968822 L 77.60022,15.406322 C 77.456112,15.166965 76.915985,14.447035 76.41272,14.406322 C 76.340823,14.400506 76.26201,14.412711 76.19397,14.437572 L 70.03772,16.593822 C 69.499029,16.773454 69.268931,17.501302 69.31897,17.937572 L 70.94397,28.218822 C 67.923753,29.62812 64.992227,31.249829 62.19397,33.062572 L 54.63147,26.500072 C 54.387932,26.293569 53.458579,25.700028 53.00647,26.062572 L 47.85022,30.093822 C 47.397285,30.436318 47.413267,31.196476 47.60022,31.593822 L 52.38147,40.687572 C 49.921712,42.967046 47.616001,45.423456 45.50647,48.031322 L 36.31897,44.281322 C 36.022253,44.163365 34.944193,43.887174 34.63147,44.375072 L 31.03772,49.843822 C 30.717813,50.312986 30.952457,51.026945 31.25647,51.343822 L 38.60022,58.343822 C 38.330998,58.84272 38.075336,59.337453 37.81897,59.843822 C 36.454709,62.469626 35.274034,65.191046 34.25647,67.968822 L 34.00647,68.843822 L 24.53772,68.000072 C 24.219379,67.975299 23.066899,68.035172 22.91272,68.593822 L 21.13147,74.875072 C 20.964885,75.417943 21.40349,76.006215 21.78772,76.218822 L 30.88147,80.750072 C 30.421961,83.553764 30.122369,86.378381 30.00647,89.218822 C 35.225219,89.218825 40.44397,89.218822 45.66272,89.218822 C 45.982608,80.179638 48.77721,71.400507 53.41272,63.718822 L 80.06897,81.531322 C 78.902643,83.940222 78.166491,86.55571 77.88147,89.218822 C 86.193968,89.218825 94.506474,89.218822 102.81897,89.218822 C 109.76689,89.218825 116.71481,89.218822 123.66272,89.218822 L 144.78772,89.218822 L 123.50647,87.968822 C 122.408,80.919206 117.83563,74.5085 111.56897,71.125072 L 121.78772,41.187572 C 128.78283,44.073147 135.18667,48.384233 140.38147,53.968822 C 149.44193,63.394763 154.95819,76.151937 155.53772,89.218822 C 160.41272,89.218825 165.28772,89.218822 170.16272,89.218822 C 170.23717,85.223994 170.25574,81.215762 169.41272,77.312572 L 177.85022,72.718822 C 178.1286,72.562436 179.06388,71.862651 178.88147,71.312572 L 176.88147,65.093822 C 176.71816,64.549964 175.97529,64.30694 175.53772,64.343822 L 165.60022,65.593822 L 165.10022,64.093822 C 163.85637,61.251075 162.43046,58.492665 160.81897,55.843822 L 167.75647,48.531322 C 167.97304,48.296686 168.59967,47.373296 168.25647,46.906322 L 164.44397,41.593822 C 164.12084,41.126869 163.38008,41.111262 162.97522,41.281322 L 153.41272,45.781322 C 151.3472,43.434686 149.13884,41.216997 146.78772,39.156322 L 151.38147,29.562572 C 151.51588,29.272933 151.85107,28.183411 151.38147,27.843822 L 146.13147,23.968822 C 145.68097,23.62311 144.9649,23.839307 144.63147,24.125072 L 136.56897,31.656322 L 136.72522,31.781322 C 133.83088,30.022401 130.81409,28.475356 127.69397,27.156322 L 128.75647,17.218822 C 128.787,16.90098 128.74973,15.758073 128.19397,15.593822 L 121.94397,13.687572 C 121.40421,13.511202 120.7885,13.963501 120.56897,14.343822 L 115.85022,23.406322 C 115.28948,23.285555 114.72731,23.168401 114.16272,23.062572 C 111.30472,22.497335 108.41102,22.1463 105.50647,21.937572 L 103.63147,12.187572 C 103.56779,11.874682 103.21098,10.776018 102.63147,10.781322 L 96.10022,10.781322 z M 100.60022,36.937572 C 105.45369,36.965377 110.31776,37.638654 115.00647,38.906322 L 104.78772,68.781322 C 103.46544,68.548394 102.13419,68.436677 100.78772,68.437572 C 94.540894,68.365322 88.447697,71.13497 84.16272,75.625072 L 57.53772,57.812572 C 63.911837,49.767834 72.450217,43.437481 82.22522,40.093822 C 88.12925,37.929414 94.360049,36.901823 100.60022,36.937572 z"
     id="path4"
     style="fill:#000000;fill-opacity:1;stroke:none;stroke-width:2;stroke-miterlimit:4;stroke-dasharray:none;stroke-opacity:1" />
</svg>
