<?xml version="1.0" encoding="UTF-8" standalone="no"?>
<!DOCTYPE svg PUBLIC "-//W3C//DTD SVG 1.1 Tiny//EN" "http://www.w3.org/Graphics/SVG/1.1/DTD/svg11-tiny.dtd">
<svg xmlns="http://www.w3.org/2000/svg" baseProfile="tiny" height="50" version="1.0" viewBox="0 0 50 50" width="50">
<defs/>
<path d="M 34.594,26.311 L 34.593765,32.654316 L 28.218765,32.654316 L 28.219,39.529316 L 34.593765,39.529316 L 34.593765,45.873066 L 41.437515,45.873066 L 41.437515,39.529316 L 47.812515,39.529316 L 47.812515,32.654 L 41.437515,32.654316 L 41.438,26.311 L 34.594,26.311 z" style="opacity:1;fill:#ffffff;fill-opacity:1;stroke:#000000;stroke-width:0.98923844;stroke-linecap:square;stroke-linejoin:miter;stroke-miterlimit:4;stroke-dasharray:none;stroke-opacity:0.47058824"/>
<path d="M 25.471691,4.4309112 C 24.147105,5.5141998 4.9727571,20.494663 3.7809151,21.418428 C 5.8033911,21.416202 6.0499441,21.433703 7.9947681,21.425892 C 7.9911491,24.250575 7.9843991,39.362824 7.9862601,41.945009 C 9.9406137,41.945009 23.365543,41.972898 25.729117,41.972898 C 25.729117,40.020185 25.704759,33.237822 25.704759,30.515672 C 28.032425,30.515672 29.823057,30.50527 32.121286,30.50527 C 32.121286,28.586143 32.111894,24.963484 32.111894,23.454807 C 34.825562,23.481404 38.85889,23.457306 41.526669,23.450438 C 41.499527,22.71605 41.554993,22.78447 41.510849,21.439969 C 43.082063,21.44399 43.955395,21.439223 45.550659,21.431181 C 44.451017,20.444407 41.279703,17.665885 37.037359,14.126676 L 37.037359,5.0590141 L 33.033003,5.0590141 L 33.033003,10.788476 C 29.244379,7.6338721 25.938286,4.8793917 25.471691,4.4309112 z" style="font-size:12px;fill:#ffffff;fill-opacity:0.82352942;fill-rule:evenodd;stroke:#000000;stroke-width:1;stroke-miterlimit:4;stroke-dasharray:none;stroke-opacity:0.47058823999999999"/>
</svg>
