<?xml version="1.0" encoding="UTF-8" standalone="no"?>
<!DOCTYPE svg PUBLIC "-//W3C//DTD SVG 1.1 Tiny//EN" "http://www.w3.org/Graphics/SVG/1.1/DTD/svg11-tiny.dtd">
<svg xmlns="http://www.w3.org/2000/svg" baseProfile="tiny" height="50" version="1.0" viewBox="0 0 50 50" width="50">
<path d="M 18.25,5.15625 C 14.150233,5.2930659 10.138613,7.3235155 7.75,10.65625 C 4.5623917,14.887083 4.2839576,21.084355 7.125,25.65625 C 9.6375462,29.893365 14.597488,32.47648 19.46875,32.125 C 22.358857,31.986665 25.118429,30.858541 27.3125,29.03125 C 27.983019,29.701768 28.674535,30.393285 29.34375,31.0625 C 29.000075,31.803829 29.111329,32.729416 29.6875,33.34375 C 33.494683,37.159875 37.314586,40.968281 41.125,44.78125 C 41.627389,45.348617 42.290482,45.885316 43.09375,45.8125 C 43.930175,45.815366 44.496173,45.147955 45.03125,44.59375 C 45.931559,43.870768 46.088423,42.40436 45.28125,41.5625 C 41.474067,37.746378 37.654165,33.969219 33.84375,30.15625 C 33.341363,29.588882 32.647019,29.052184 31.84375,29.125 C 31.559411,29.12443 31.324961,29.227243 31.09375,29.34375 C 30.416932,28.666931 29.740637,27.990638 29.0625,27.3125 C 30.093827,26.084631 30.887849,24.657527 31.40625,23.125 C 33.120998,18.386688 31.883089,12.667489 28.21875,9.09375 C 26.292084,7.1553121 23.771,5.8524492 21.09375,5.375 C 20.15429,5.1950037 19.1961,5.1246771 18.25,5.15625 z" style="fill:#ffffff;fill-opacity:0.57080611;stroke:#000000;stroke-width:1;stroke-linejoin:miter;stroke-miterlimit:4;stroke-dasharray:none;stroke-opacity:0.47058824"/>
<path d="M 23.628448,27.225844 C 23.509283,28.309832 22.478392,28.992062 21.511816,29.275888 C 19.156611,30.077954 16.391993,29.932933 14.286248,28.537168 C 13.608716,28.030802 13.330901,26.929645 13.958136,26.274324 C 14.915963,25.176584 16.445261,24.894774 17.823661,24.742011 C 19.571063,24.59547 21.458579,24.861234 22.89289,25.935773 C 23.282824,26.25483 23.622296,26.701168 23.628448,27.225844 z" style="opacity:1;fill:#ffffff;fill-opacity:0.57080611;stroke:none;stroke-width:2.07200003;stroke-linejoin:miter;stroke-miterlimit:4;stroke-dasharray:none;stroke-opacity:1"/>
</svg>
