<?xml version="1.0" encoding="UTF-8" standalone="no"?>
<!DOCTYPE svg PUBLIC "-//W3C//DTD SVG 1.1 Tiny//EN" "http://www.w3.org/Graphics/SVG/1.1/DTD/svg11-tiny.dtd">
<svg xmlns="http://www.w3.org/2000/svg" baseProfile="tiny" height="50" version="1.0" viewBox="0 0 50 50" width="50">
<defs/>
<path d="M 25.471691,4.4309112 C 24.147105,5.5141998 4.9727571,20.494663 3.7809151,21.418428 C 5.8033911,21.416202 6.0499441,21.433703 7.9947681,21.425892 C 7.9911491,24.250575 7.9843991,39.362824 7.9862601,41.945009 C 9.9406137,41.945009 22.839426,41.972898 25.203,41.972898 C 25.203,40.020185 25.203,32.35015 25.203,29.628 C 27.530666,29.628 34.249771,29.628 36.548,29.628 C 36.548,27.708873 36.548,22.522634 36.548,21.013957 C 37.97362,22.439578 40.042528,24.185252 41.526669,25.669392 C 41.499527,24.935004 41.554993,22.78447 41.510849,21.439969 C 43.082063,21.44399 43.955395,21.439223 45.550659,21.431181 C 44.451017,20.444407 41.279703,17.665885 37.037359,14.126676 L 37.037359,5.0590141 L 33.033003,5.0590141 L 33.033003,10.788476 C 29.244379,7.6338721 25.938286,4.8793917 25.471691,4.4309112 z" style="font-size:12px;fill:#ffffff;fill-opacity:0.82352942;fill-rule:evenodd;stroke:#000000;stroke-width:1;stroke-miterlimit:4;stroke-dasharray:none;stroke-opacity:0.47058823999999999"/>
<path d="M 28.203,32.627806 L 39.548109,32.628 L 39.548,28.027806 L 47.721344,36.077806 L 39.548109,44.127806 L 39.548109,39.527806 L 28.2028,39.527806 L 28.203,32.627806 z" style="fill:#ffffff;fill-opacity:1;fill-rule:evenodd;stroke:#000000;stroke-width:1;stroke-linecap:butt;stroke-linejoin:miter;stroke-miterlimit:4;stroke-dasharray:none;stroke-opacity:0.47058824"/>
</svg>
