<?xml version="1.0" encoding="UTF-8" standalone="no"?>
<!DOCTYPE svg PUBLIC "-//W3C//DTD SVG 1.1 Tiny//EN" "http://www.w3.org/Graphics/SVG/1.1/DTD/svg11-tiny.dtd">
<svg xmlns="http://www.w3.org/2000/svg" xmlns:xlink="http://www.w3.org/1999/xlink" baseProfile="tiny" height="50" version="1.0" viewBox="0 0 50 50" width="50">
<path d="M 3.8177985,10.799447 C 17.929737,10.799447 32.045409,10.791668 46.157348,10.791668 C 46.303804,10.792764 46.551167,11.032461 46.541462,11.187545 C 46.544147,11.471264 46.543806,11.951672 46.541748,12.541426 C 44.704117,13.500383 32.606493,19.742156 24.991318,23.648281 C 17.809193,20.011247 10.870749,16.363469 3.4486454,12.520269 C 3.4537381,12.119869 3.4538799,11.777883 3.4572702,11.170295 C 3.4534004,11.019369 3.6629469,10.796969 3.8177985,10.799447 z" style="fill:#ffffff;fill-opacity:1;stroke:#000000;stroke-width:1;stroke-linejoin:miter;stroke-miterlimit:4;stroke-dasharray:none;stroke-opacity:0.47058824"/>
<path d="M 3.8189485,39.200553 C 17.930887,39.200553 32.045409,39.208332 46.157348,39.208332 C 46.303804,39.207236 46.551351,38.96793 46.541646,38.812845 C 46.544331,38.529127 46.553102,15.80853 46.551045,15.218776 C 43.217317,16.921992 30.770909,23.350376 24.991502,26.351719 C 17.591574,22.52122 9.6263446,18.421434 3.4488292,15.232707 C 3.453922,15.633107 3.4540638,38.222508 3.4574541,38.830095 C 3.4535843,38.981021 3.6640969,39.203031 3.8189485,39.200553 z" style="fill:#ffffff;fill-opacity:1;stroke:#000000;stroke-width:1;stroke-linejoin:miter;stroke-miterlimit:4;stroke-dasharray:none;stroke-opacity:0.47058824"/>
</svg>
