<?xml version="1.0" encoding="UTF-8" standalone="no"?>
<!DOCTYPE svg PUBLIC "-//W3C//DTD SVG 1.1 Tiny//EN" "http://www.w3.org/Graphics/SVG/1.1/DTD/svg11-tiny.dtd">
<svg xmlns="http://www.w3.org/2000/svg" baseProfile="tiny" height="50" version="1.0" viewBox="0 0 50 50" width="50">
<defs/>
<path d="M 34.594,26.311 L 34.593765,32.654316 L 28.219,32.654 L 28.219,39.529316 L 34.593765,39.529316 L 34.593765,45.873066 L 41.437515,45.873066 L 41.437515,39.529316 L 47.812515,39.529316 L 47.812515,32.654 L 41.437515,32.654316 L 41.438,26.311 L 34.594,26.311 z" style="opacity:1;fill:#ffffff;fill-opacity:1;stroke:#000000;stroke-width:0.98923844;stroke-linecap:square;stroke-linejoin:miter;stroke-miterlimit:4;stroke-dasharray:none;stroke-opacity:0.47058824"/>
<path d="M 20.636702,4.094207 L 22.324202,7.256707 C 20.835118,7.5798746 19.752274,8.1556414 19.399202,8.831707 C 15.631046,8.9681709 11.83122,9.2342669 7.8867025,9.6567069 C 6.0493495,10.086459 4.7023765,11.65434 4.1367025,13.444206 C 2.6718405,21.560571 2.6912405,29.335795 3.9617025,37.331706 C 4.6680955,39.339736 5.7489405,40.790133 7.8492025,41.294206 C 13.365245,41.964193 19.494306,42.234686 25.219,42.223899 C 25.219,40.102761 25.219,31.758579 25.219,29.654 C 27.0312,29.654 29.138791,29.654 31.594,29.654 C 31.594,27.646805 31.586173,25.499841 31.594,23.311 C 33.964966,23.311 42.332489,23.311 44.438,23.311 C 44.440645,25.422307 44.438,27.601767 44.438,29.654 C 46.404872,29.654 44.600837,29.654 47.177033,29.654 C 47.186413,25.691525 47.206574,18.092475 46.286702,13.569206 C 45.813658,11.561175 44.55365,9.839934 42.161702,9.5692069 C 38.35613,9.2141139 34.685018,8.9617339 31.024202,8.831707 C 30.668078,8.1497938 29.570527,7.578407 28.061702,7.256707 L 30.074202,4.094207 L 26.911702,4.094207 L 25.124202,6.894207 L 23.624202,4.094207 L 20.636702,4.094207 z M 32.499202,14.994206 C 34.160013,15.654423 34.788862,16.408803 35.174202,17.669206 C 35.565643,18.888043 35.478412,18.573876 35.733884,20.311 C 33.42048,20.311 31.02674,20.311 28.594,20.311 C 28.594,21.505805 28.594,24.866939 28.594,26.654 C 26.63846,26.654 24.446128,26.654 22.219,26.654 C 22.219,28.753245 22.219,35.656531 22.219,37.224116 C 18.399823,37.484547 13.648572,37.127339 9.7617025,35.919206 C 8.3603025,35.325531 7.5384025,34.490239 7.1617025,33.194206 C 5.7675895,26.603409 5.7576075,24.106242 7.2867025,17.719206 C 7.7363555,16.556419 8.8385115,15.534754 9.8867025,14.994206 C 17.300527,12.451782 25.06957,12.808559 32.499202,14.994206 z M 41.330402,14.931706 C 43.153318,14.931706 44.630934,16.40879 44.630402,18.231706 C 44.630934,20.054623 43.153318,21.531706 41.330402,21.531706 C 39.507486,21.531705 38.02987,20.054622 38.030402,18.231706 C 38.02987,16.408791 39.507486,14.931706 41.330402,14.931706 z" style="fill:#ffffff;fill-opacity:0.82352942;stroke:#000000;stroke-width:1;stroke-linecap:round;stroke-linejoin:miter;stroke-miterlimit:4;stroke-dasharray:none;stroke-opacity:0.47058823999999999"/>
</svg>
