<?xml version="1.0" encoding="UTF-8" standalone="no"?>
<!DOCTYPE svg PUBLIC "-//W3C//DTD SVG 1.1 Tiny//EN" "http://www.w3.org/Graphics/SVG/1.1/DTD/svg11-tiny.dtd">
<svg xmlns="http://www.w3.org/2000/svg" baseProfile="tiny" height="50" version="1.0" viewBox="0 0 50 50" width="50">
<defs/>
<path d="M 3.7594899,10.376077 C 17.871428,10.376077 31.987101,10.368299 46.09904,10.368299 C 46.245495,10.369395 46.492858,10.609091 46.483153,10.764176 C 46.485839,11.047895 46.485497,11.528303 46.48344,12.118056 C 44.645809,13.077013 32.548185,19.318787 24.933009,23.224911 C 17.750884,19.587877 10.812441,15.940099 3.3903368,12.096899 C 3.3954295,11.696499 3.3955713,11.354513 3.3989617,10.746926 C 3.3950918,10.596 3.6046384,10.373599 3.7594899,10.376077 z" style="fill:#ffffff;fill-opacity:0.82352942;stroke:#000000;stroke-width:1;stroke-linejoin:miter;stroke-miterlimit:4;stroke-dasharray:none;stroke-opacity:0.47058823999999999"/>
<path d="M 3.7606399,38.777183 C 4.4176775,38.770271 25.056695,38.762198 25.719,38.766337 C 25.729077,37.159123 25.711728,32.641594 25.719,30.454 C 27.269037,30.459085 30.558169,30.440468 32.094,30.454 C 32.076122,28.837379 32.093141,24.892113 32.094,23.427 C 33.941745,23.447468 41.812292,23.407719 43.938,23.427 C 43.919959,24.714326 43.939001,30.225402 43.938,30.454 C 44.679876,30.452904 44.664254,30.438965 46.483337,30.454 C 46.486023,29.021973 46.494794,15.38516 46.492736,14.795407 C 43.159008,16.498622 30.712601,22.927006 24.933193,25.92835 C 17.533265,22.09785 9.568036,17.998065 3.3905207,14.809338 C 3.3956134,15.209738 3.3957552,37.799138 3.3991455,38.406726 C 3.3952757,38.557652 3.6057884,38.779662 3.7606399,38.777183 z" style="fill:#ffffff;fill-opacity:0.82352942;stroke:#000000;stroke-width:1;stroke-linejoin:miter;stroke-miterlimit:4;stroke-dasharray:none;stroke-opacity:0.47058823999999999"/>
<path d="M 34.594,26.311 L 34.593765,32.654316 L 28.218765,32.654316 L 28.219,39.529316 L 34.593765,39.529316 L 34.593765,45.873066 L 41.437515,45.873066 L 41.437515,39.529316 L 47.812515,39.529316 L 47.812515,32.654 L 41.437515,32.654316 L 41.438,26.311 L 34.594,26.311 z" style="opacity:1;fill:#ffffff;fill-opacity:1;stroke:#000000;stroke-width:0.98923844;stroke-linecap:square;stroke-linejoin:miter;stroke-miterlimit:4;stroke-dasharray:none;stroke-opacity:0.47058824"/>
</svg>
