<?xml version="1.0" encoding="UTF-8" standalone="no"?>
<!DOCTYPE svg PUBLIC "-//W3C//DTD SVG 1.1 Tiny//EN" "http://www.w3.org/Graphics/SVG/1.1/DTD/svg11-tiny.dtd">
<svg xmlns="http://www.w3.org/2000/svg" baseProfile="tiny" height="50" version="1.0" viewBox="0 0 50 50" width="50">
<defs/>
<path d="M 17.120437,6.8228649 C 24.434455,7.0759647 30.018238,7.6348005 37.415583,8.1586022 C 37.507942,8.3813882 37.660478,8.7601758 37.846441,9.2257008 C 36.702954,10.566094 29.152399,19.334059 24.392207,24.835218 C 17.574093,24.252779 10.944643,23.584363 3.8717923,22.915745 C 3.7484505,22.598512 3.639786,22.328898 3.4492016,21.848892 C 8.2030428,16.456907 12.177315,12.024896 17.120437,6.8228649 z" style="fill:#ffffff;fill-opacity:0.82352942;stroke:#000000;stroke-width:1;stroke-linejoin:miter;stroke-miterlimit:4;stroke-dasharray:none;stroke-opacity:0.47058823999999999"/>
<path d="M 12.649939,43.82856 C 23.773604,39.339944 34.901778,34.856638 46.025443,30.368022 C 46.140537,30.320574 46.259548,30.053205 46.202569,29.934047 C 46.114444,29.709553 38.894566,11.797369 38.70536,11.333152 C 36.619311,13.73607 28.853184,22.762068 25.25224,26.96613 C 18.200908,26.300471 10.618329,25.602354 4.7346885,25.053752 C 4.866059,25.367746 12.051232,43.17368 12.247161,43.65153 C 12.292117,43.771727 12.528667,43.879768 12.649939,43.82856 z" style="fill:#ffffff;fill-opacity:1;stroke:#000000;stroke-width:1;stroke-linejoin:miter;stroke-miterlimit:4;stroke-dasharray:none;stroke-opacity:0.47058824"/>
</svg>
