<?xml version="1.0" encoding="UTF-8" standalone="no"?>
<!DOCTYPE svg PUBLIC "-//W3C//DTD SVG 1.1 Tiny//EN" "http://www.w3.org/Graphics/SVG/1.1/DTD/svg11-tiny.dtd">
<svg xmlns="http://www.w3.org/2000/svg" baseProfile="tiny" height="50" version="1.0" viewBox="0 0 50 50" width="50">
<path d="M 19.45385,12.090384 C 19.45385,17.703872 19.45385,10.47168 19.45385,16.085168 C 27.379214,16.085168 31.126552,16.085168 39.051916,16.085168 C 45.484467,16.049969 45.463678,27.489413 39.051916,27.471761 C 35.379763,27.445454 22.844843,27.378185 19.600868,27.384944 C 19.630824,31.415136 21.614062,32.80861 25.556611,32.859058 C 30.083751,32.927289 34.523909,32.874861 39.051916,32.891332 C 45.51065,32.913662 45.51065,44.838124 39.051916,44.860456 C 29.943707,44.602604 22.416845,45.875183 13.898784,42.492262 C 6.4095347,39.182181 5.794398,31.127783 5.7590921,24.811115 C 5.7746058,16.451093 5.7590921,21.250812 5.7590921,12.090384 C 5.7297394,3.9046941 19.417927,3.9111677 19.45385,12.090384 z" style="font-size:20px;font-style:normal;font-variant:normal;font-weight:normal;font-stretch:normal;text-align:start;line-height:100%;writing-mode:lr-tb;text-anchor:start;fill:#08dded;fill-opacity:1;stroke:#ffffff;stroke-width:2;stroke-linecap:butt;stroke-linejoin:miter;stroke-miterlimit:4;stroke-dasharray:none;stroke-opacity:0.78431373;font-family:DejaVu Sans;-inkscape-font-specification:DejaVu Sans"/>
</svg>
